<mxfile type="device" compressed="false">
    <diagram id="xI1n7PUDQ-lDr-DjmP3Y" name="Page-1">
      <mxGraphModel dx="1800" dy="1970" grid="1" gridSize="10" guides="1" tooltips="1" connect="1" arrows="1" fold="1" page="1" pageScale="1" pageWidth="1800" pageHeight="1970" math="0" shadow="0">
        <root>
          <mxCell id="0" />   
          <mxCell id="1" parent="0" />
        <mxCell id="ISHIFT MDG" value="ISHIFT MDG" style="rounded=1;whiteSpace=wrap;html=1;fillColor=#dae8fc;strokeColor=#6c8ebf;verticalAlign=top;" vertex="1" parent="1">
        <mxGeometry x="0" y="0" width="120" height="1970" as="geometry" />
    </mxCell><mxCell id="iShift Tibco" value="iShift Tibco" style="rounded=1;whiteSpace=wrap;html=1;fillColor=#d5e8d4;strokeColor=#82b366;verticalAlign=top;" vertex="1" parent="1">
        <mxGeometry x="960" y="0" width="120" height="1970" as="geometry" />
    </mxCell><mxCell id="FFT External" value="FFT External" style="rounded=1;whiteSpace=wrap;html=1;fillColor=#ffe6cc;strokeColor=#d79b00;verticalAlign=top;" vertex="1" parent="1">
        <mxGeometry x="1200" y="0" width="120" height="1970" as="geometry" />
    </mxCell><mxCell id="RMUS" value="RMUS" style="rounded=1;whiteSpace=wrap;html=1;fillColor=#f5f5f5;strokeColor=#666666;verticalAlign=top;" vertex="1" parent="1">
        <mxGeometry x="1680" y="0" width="120" height="1970" as="geometry" />
    </mxCell><mxCell id="Workday" value="Workday" style="rounded=1;whiteSpace=wrap;html=1;fillColor=#dae8fc;strokeColor=#6c8ebf;verticalAlign=top;" vertex="1" parent="1">
        <mxGeometry x="240" y="0" width="120" height="1970" as="geometry" />
    </mxCell><mxCell id="ISHIFT S4" value="ISHIFT S4" style="rounded=1;whiteSpace=wrap;html=1;fillColor=#dae8fc;strokeColor=#6c8ebf;verticalAlign=top;" vertex="1" parent="1">
        <mxGeometry x="480" y="0" width="120" height="1970" as="geometry" />
    </mxCell><mxCell id="FFT Internal" value="FFT Internal" style="rounded=1;whiteSpace=wrap;html=1;fillColor=#ffe6cc;strokeColor=#d79b00;verticalAlign=top;" vertex="1" parent="1">
        <mxGeometry x="720" y="0" width="120" height="1970" as="geometry" />
    </mxCell><mxCell id="GAMS (API gateway - Layer7)" value="GAMS (API gateway - Layer7)" style="rounded=1;whiteSpace=wrap;html=1;fillColor=#ffe6cc;strokeColor=#d79b00;verticalAlign=top;" vertex="1" parent="1">
        <mxGeometry x="1440" y="0" width="120" height="1970" as="geometry" />
    </mxCell><mxCell id="out_ISHIFT MDG_0" value="ALE Idoc" style="shape=delay;whiteSpace=wrap;html=1;fillColor=#eeeeee;strokeColor=#36393d;rotation=0;fontSize=10;" vertex="1" parent="1">
        <mxGeometry x="70" y="40" width="60" height="20" as="geometry" />
    </mxCell><mxCell id="out_iShift Tibco_0" value="" style="shape=delay;whiteSpace=wrap;html=1;fillColor=#eeeeee;strokeColor=#36393d;rotation=0;fontSize=10;" vertex="1" parent="1">
        <mxGeometry x="1030" y="40" width="60" height="20" as="geometry" />
    </mxCell><mxCell id="in_iShift Tibco_0" value="" style="shape=delay;whiteSpace=wrap;html=1;fillColor=#eeeeee;strokeColor=#36393d;rotation=0;fontSize=10;" vertex="1" parent="1">
        <mxGeometry x="950" y="40" width="60" height="20" as="geometry" />
    </mxCell><mxCell id="out_FFT External_0" value="" style="shape=delay;whiteSpace=wrap;html=1;fillColor=#eeeeee;strokeColor=#36393d;rotation=0;fontSize=10;" vertex="1" parent="1">
        <mxGeometry x="1270" y="40" width="60" height="20" as="geometry" />
    </mxCell><mxCell id="in_FFT External_0" value="" style="shape=delay;whiteSpace=wrap;html=1;fillColor=#eeeeee;strokeColor=#36393d;rotation=0;fontSize=10;" vertex="1" parent="1">
        <mxGeometry x="1190" y="40" width="60" height="20" as="geometry" />
    </mxCell><mxCell id="in_RMUS_0" value="File" style="shape=delay;whiteSpace=wrap;html=1;fillColor=#eeeeee;strokeColor=#36393d;rotation=0;fontSize=10;" vertex="1" parent="1">
        <mxGeometry x="1670" y="40" width="60" height="20" as="geometry" />
    </mxCell><mxCell id="out_ISHIFT MDG_1" value="ALE Idoc" style="shape=delay;whiteSpace=wrap;html=1;fillColor=#eeeeee;strokeColor=#36393d;rotation=0;fontSize=10;" vertex="1" parent="1">
        <mxGeometry x="70" y="130" width="60" height="20" as="geometry" />
    </mxCell><mxCell id="out_iShift Tibco_1" value="" style="shape=delay;whiteSpace=wrap;html=1;fillColor=#eeeeee;strokeColor=#36393d;rotation=0;fontSize=10;" vertex="1" parent="1">
        <mxGeometry x="1030" y="130" width="60" height="20" as="geometry" />
    </mxCell><mxCell id="in_iShift Tibco_1" value="" style="shape=delay;whiteSpace=wrap;html=1;fillColor=#eeeeee;strokeColor=#36393d;rotation=0;fontSize=10;" vertex="1" parent="1">
        <mxGeometry x="950" y="130" width="60" height="20" as="geometry" />
    </mxCell><mxCell id="out_FFT External_1" value="" style="shape=delay;whiteSpace=wrap;html=1;fillColor=#eeeeee;strokeColor=#36393d;rotation=0;fontSize=10;" vertex="1" parent="1">
        <mxGeometry x="1270" y="130" width="60" height="20" as="geometry" />
    </mxCell><mxCell id="in_FFT External_1" value="" style="shape=delay;whiteSpace=wrap;html=1;fillColor=#eeeeee;strokeColor=#36393d;rotation=0;fontSize=10;" vertex="1" parent="1">
        <mxGeometry x="1190" y="130" width="60" height="20" as="geometry" />
    </mxCell><mxCell id="in_RMUS_1" value="No Changes" style="shape=delay;whiteSpace=wrap;html=1;fillColor=#eeeeee;strokeColor=#36393d;rotation=0;fontSize=10;" vertex="1" parent="1">
        <mxGeometry x="1670" y="130" width="60" height="20" as="geometry" />
    </mxCell><mxCell id="out_ISHIFT MDG_2" value="No Changes" style="shape=delay;whiteSpace=wrap;html=1;fillColor=#eeeeee;strokeColor=#36393d;rotation=0;fontSize=10;" vertex="1" parent="1">
        <mxGeometry x="70" y="220" width="60" height="20" as="geometry" />
    </mxCell><mxCell id="out_iShift Tibco_2" value="" style="shape=delay;whiteSpace=wrap;html=1;fillColor=#eeeeee;strokeColor=#36393d;rotation=0;fontSize=10;" vertex="1" parent="1">
        <mxGeometry x="1030" y="220" width="60" height="20" as="geometry" />
    </mxCell><mxCell id="in_iShift Tibco_2" value="" style="shape=delay;whiteSpace=wrap;html=1;fillColor=#eeeeee;strokeColor=#36393d;rotation=0;fontSize=10;" vertex="1" parent="1">
        <mxGeometry x="950" y="220" width="60" height="20" as="geometry" />
    </mxCell><mxCell id="out_FFT External_2" value="" style="shape=delay;whiteSpace=wrap;html=1;fillColor=#eeeeee;strokeColor=#36393d;rotation=0;fontSize=10;" vertex="1" parent="1">
        <mxGeometry x="1270" y="220" width="60" height="20" as="geometry" />
    </mxCell><mxCell id="in_FFT External_2" value="" style="shape=delay;whiteSpace=wrap;html=1;fillColor=#eeeeee;strokeColor=#36393d;rotation=0;fontSize=10;" vertex="1" parent="1">
        <mxGeometry x="1190" y="220" width="60" height="20" as="geometry" />
    </mxCell><mxCell id="in_RMUS_2" value="No Changes" style="shape=delay;whiteSpace=wrap;html=1;fillColor=#eeeeee;strokeColor=#36393d;rotation=0;fontSize=10;" vertex="1" parent="1">
        <mxGeometry x="1670" y="220" width="60" height="20" as="geometry" />
    </mxCell><mxCell id="out_Workday_3" value="ALE Idoc" style="shape=delay;whiteSpace=wrap;html=1;fillColor=#eeeeee;strokeColor=#36393d;rotation=0;fontSize=10;" vertex="1" parent="1">
        <mxGeometry x="310" y="310" width="60" height="20" as="geometry" />
    </mxCell><mxCell id="out_iShift Tibco_3" value="" style="shape=delay;whiteSpace=wrap;html=1;fillColor=#eeeeee;strokeColor=#36393d;rotation=0;fontSize=10;" vertex="1" parent="1">
        <mxGeometry x="1030" y="310" width="60" height="20" as="geometry" />
    </mxCell><mxCell id="in_iShift Tibco_3" value="" style="shape=delay;whiteSpace=wrap;html=1;fillColor=#eeeeee;strokeColor=#36393d;rotation=0;fontSize=10;" vertex="1" parent="1">
        <mxGeometry x="950" y="310" width="60" height="20" as="geometry" />
    </mxCell><mxCell id="in_RMUS_3" value="File" style="shape=delay;whiteSpace=wrap;html=1;fillColor=#eeeeee;strokeColor=#36393d;rotation=0;fontSize=10;" vertex="1" parent="1">
        <mxGeometry x="1670" y="310" width="60" height="20" as="geometry" />
    </mxCell><mxCell id="out_ISHIFT S4_4" value="ALE Idoc" style="shape=delay;whiteSpace=wrap;html=1;fillColor=#eeeeee;strokeColor=#36393d;rotation=0;fontSize=10;" vertex="1" parent="1">
        <mxGeometry x="550" y="400" width="60" height="20" as="geometry" />
    </mxCell><mxCell id="out_iShift Tibco_4" value="" style="shape=delay;whiteSpace=wrap;html=1;fillColor=#eeeeee;strokeColor=#36393d;rotation=0;fontSize=10;" vertex="1" parent="1">
        <mxGeometry x="1030" y="400" width="60" height="20" as="geometry" />
    </mxCell><mxCell id="in_iShift Tibco_4" value="" style="shape=delay;whiteSpace=wrap;html=1;fillColor=#eeeeee;strokeColor=#36393d;rotation=0;fontSize=10;" vertex="1" parent="1">
        <mxGeometry x="950" y="400" width="60" height="20" as="geometry" />
    </mxCell><mxCell id="out_FFT External_4" value="" style="shape=delay;whiteSpace=wrap;html=1;fillColor=#eeeeee;strokeColor=#36393d;rotation=0;fontSize=10;" vertex="1" parent="1">
        <mxGeometry x="1270" y="400" width="60" height="20" as="geometry" />
    </mxCell><mxCell id="in_FFT External_4" value="" style="shape=delay;whiteSpace=wrap;html=1;fillColor=#eeeeee;strokeColor=#36393d;rotation=0;fontSize=10;" vertex="1" parent="1">
        <mxGeometry x="1190" y="400" width="60" height="20" as="geometry" />
    </mxCell><mxCell id="in_RMUS_4" value="File" style="shape=delay;whiteSpace=wrap;html=1;fillColor=#eeeeee;strokeColor=#36393d;rotation=0;fontSize=10;" vertex="1" parent="1">
        <mxGeometry x="1670" y="400" width="60" height="20" as="geometry" />
    </mxCell><mxCell id="out_ISHIFT S4_5" value="Idoc XML" style="shape=delay;whiteSpace=wrap;html=1;fillColor=#eeeeee;strokeColor=#36393d;rotation=0;fontSize=10;" vertex="1" parent="1">
        <mxGeometry x="550" y="490" width="60" height="20" as="geometry" />
    </mxCell><mxCell id="out_iShift Tibco_5" value="" style="shape=delay;whiteSpace=wrap;html=1;fillColor=#eeeeee;strokeColor=#36393d;rotation=0;fontSize=10;" vertex="1" parent="1">
        <mxGeometry x="1030" y="490" width="60" height="20" as="geometry" />
    </mxCell><mxCell id="in_iShift Tibco_5" value="" style="shape=delay;whiteSpace=wrap;html=1;fillColor=#eeeeee;strokeColor=#36393d;rotation=0;fontSize=10;" vertex="1" parent="1">
        <mxGeometry x="950" y="490" width="60" height="20" as="geometry" />
    </mxCell><mxCell id="out_FFT External_5" value="" style="shape=delay;whiteSpace=wrap;html=1;fillColor=#eeeeee;strokeColor=#36393d;rotation=0;fontSize=10;" vertex="1" parent="1">
        <mxGeometry x="1270" y="490" width="60" height="20" as="geometry" />
    </mxCell><mxCell id="in_FFT External_5" value="" style="shape=delay;whiteSpace=wrap;html=1;fillColor=#eeeeee;strokeColor=#36393d;rotation=0;fontSize=10;" vertex="1" parent="1">
        <mxGeometry x="1190" y="490" width="60" height="20" as="geometry" />
    </mxCell><mxCell id="in_RMUS_5" value="File" style="shape=delay;whiteSpace=wrap;html=1;fillColor=#eeeeee;strokeColor=#36393d;rotation=0;fontSize=10;" vertex="1" parent="1">
        <mxGeometry x="1670" y="490" width="60" height="20" as="geometry" />
    </mxCell><mxCell id="out_ISHIFT S4_6" value="Idoc XML" style="shape=delay;whiteSpace=wrap;html=1;fillColor=#eeeeee;strokeColor=#36393d;rotation=0;fontSize=10;" vertex="1" parent="1">
        <mxGeometry x="550" y="580" width="60" height="20" as="geometry" />
    </mxCell><mxCell id="out_iShift Tibco_6" value="" style="shape=delay;whiteSpace=wrap;html=1;fillColor=#eeeeee;strokeColor=#36393d;rotation=0;fontSize=10;" vertex="1" parent="1">
        <mxGeometry x="1030" y="580" width="60" height="20" as="geometry" />
    </mxCell><mxCell id="in_iShift Tibco_6" value="" style="shape=delay;whiteSpace=wrap;html=1;fillColor=#eeeeee;strokeColor=#36393d;rotation=0;fontSize=10;" vertex="1" parent="1">
        <mxGeometry x="950" y="580" width="60" height="20" as="geometry" />
    </mxCell><mxCell id="out_FFT External_6" value="" style="shape=delay;whiteSpace=wrap;html=1;fillColor=#eeeeee;strokeColor=#36393d;rotation=0;fontSize=10;" vertex="1" parent="1">
        <mxGeometry x="1270" y="580" width="60" height="20" as="geometry" />
    </mxCell><mxCell id="in_FFT External_6" value="" style="shape=delay;whiteSpace=wrap;html=1;fillColor=#eeeeee;strokeColor=#36393d;rotation=0;fontSize=10;" vertex="1" parent="1">
        <mxGeometry x="1190" y="580" width="60" height="20" as="geometry" />
    </mxCell><mxCell id="in_RMUS_6" value="File" style="shape=delay;whiteSpace=wrap;html=1;fillColor=#eeeeee;strokeColor=#36393d;rotation=0;fontSize=10;" vertex="1" parent="1">
        <mxGeometry x="1670" y="580" width="60" height="20" as="geometry" />
    </mxCell><mxCell id="out_ISHIFT S4_7" value="Idoc XML" style="shape=delay;whiteSpace=wrap;html=1;fillColor=#eeeeee;strokeColor=#36393d;rotation=0;fontSize=10;" vertex="1" parent="1">
        <mxGeometry x="550" y="670" width="60" height="20" as="geometry" />
    </mxCell><mxCell id="out_FFT Internal_7" value="" style="shape=delay;whiteSpace=wrap;html=1;fillColor=#eeeeee;strokeColor=#36393d;rotation=0;fontSize=10;" vertex="1" parent="1">
        <mxGeometry x="790" y="670" width="60" height="20" as="geometry" />
    </mxCell><mxCell id="in_FFT Internal_7" value="" style="shape=delay;whiteSpace=wrap;html=1;fillColor=#eeeeee;strokeColor=#36393d;rotation=0;fontSize=10;" vertex="1" parent="1">
        <mxGeometry x="710" y="670" width="60" height="20" as="geometry" />
    </mxCell><mxCell id="out_iShift Tibco_7" value="" style="shape=delay;whiteSpace=wrap;html=1;fillColor=#eeeeee;strokeColor=#36393d;rotation=0;fontSize=10;" vertex="1" parent="1">
        <mxGeometry x="1030" y="670" width="60" height="20" as="geometry" />
    </mxCell><mxCell id="in_iShift Tibco_7" value="" style="shape=delay;whiteSpace=wrap;html=1;fillColor=#eeeeee;strokeColor=#36393d;rotation=0;fontSize=10;" vertex="1" parent="1">
        <mxGeometry x="950" y="670" width="60" height="20" as="geometry" />
    </mxCell><mxCell id="out_FFT External_7" value="" style="shape=delay;whiteSpace=wrap;html=1;fillColor=#eeeeee;strokeColor=#36393d;rotation=0;fontSize=10;" vertex="1" parent="1">
        <mxGeometry x="1270" y="670" width="60" height="20" as="geometry" />
    </mxCell><mxCell id="in_FFT External_7" value="" style="shape=delay;whiteSpace=wrap;html=1;fillColor=#eeeeee;strokeColor=#36393d;rotation=0;fontSize=10;" vertex="1" parent="1">
        <mxGeometry x="1190" y="670" width="60" height="20" as="geometry" />
    </mxCell><mxCell id="in_RMUS_7" value="File" style="shape=delay;whiteSpace=wrap;html=1;fillColor=#eeeeee;strokeColor=#36393d;rotation=0;fontSize=10;" vertex="1" parent="1">
        <mxGeometry x="1670" y="670" width="60" height="20" as="geometry" />
    </mxCell><mxCell id="out_ISHIFT S4_8" value="ALE Idoc" style="shape=delay;whiteSpace=wrap;html=1;fillColor=#eeeeee;strokeColor=#36393d;rotation=0;fontSize=10;" vertex="1" parent="1">
        <mxGeometry x="550" y="760" width="60" height="20" as="geometry" />
    </mxCell><mxCell id="out_iShift Tibco_8" value="" style="shape=delay;whiteSpace=wrap;html=1;fillColor=#eeeeee;strokeColor=#36393d;rotation=0;fontSize=10;" vertex="1" parent="1">
        <mxGeometry x="1030" y="760" width="60" height="20" as="geometry" />
    </mxCell><mxCell id="in_iShift Tibco_8" value="" style="shape=delay;whiteSpace=wrap;html=1;fillColor=#eeeeee;strokeColor=#36393d;rotation=0;fontSize=10;" vertex="1" parent="1">
        <mxGeometry x="950" y="760" width="60" height="20" as="geometry" />
    </mxCell><mxCell id="out_FFT External_8" value="" style="shape=delay;whiteSpace=wrap;html=1;fillColor=#eeeeee;strokeColor=#36393d;rotation=0;fontSize=10;" vertex="1" parent="1">
        <mxGeometry x="1270" y="760" width="60" height="20" as="geometry" />
    </mxCell><mxCell id="in_FFT External_8" value="" style="shape=delay;whiteSpace=wrap;html=1;fillColor=#eeeeee;strokeColor=#36393d;rotation=0;fontSize=10;" vertex="1" parent="1">
        <mxGeometry x="1190" y="760" width="60" height="20" as="geometry" />
    </mxCell><mxCell id="in_RMUS_8" value="File" style="shape=delay;whiteSpace=wrap;html=1;fillColor=#eeeeee;strokeColor=#36393d;rotation=0;fontSize=10;" vertex="1" parent="1">
        <mxGeometry x="1670" y="760" width="60" height="20" as="geometry" />
    </mxCell><mxCell id="out_ISHIFT S4_9" value="ALE Idoc" style="shape=delay;whiteSpace=wrap;html=1;fillColor=#eeeeee;strokeColor=#36393d;rotation=0;fontSize=10;" vertex="1" parent="1">
        <mxGeometry x="550" y="850" width="60" height="20" as="geometry" />
    </mxCell><mxCell id="out_iShift Tibco_9" value="" style="shape=delay;whiteSpace=wrap;html=1;fillColor=#eeeeee;strokeColor=#36393d;rotation=0;fontSize=10;" vertex="1" parent="1">
        <mxGeometry x="1030" y="850" width="60" height="20" as="geometry" />
    </mxCell><mxCell id="in_iShift Tibco_9" value="" style="shape=delay;whiteSpace=wrap;html=1;fillColor=#eeeeee;strokeColor=#36393d;rotation=0;fontSize=10;" vertex="1" parent="1">
        <mxGeometry x="950" y="850" width="60" height="20" as="geometry" />
    </mxCell><mxCell id="out_FFT External_9" value="" style="shape=delay;whiteSpace=wrap;html=1;fillColor=#eeeeee;strokeColor=#36393d;rotation=0;fontSize=10;" vertex="1" parent="1">
        <mxGeometry x="1270" y="850" width="60" height="20" as="geometry" />
    </mxCell><mxCell id="in_FFT External_9" value="" style="shape=delay;whiteSpace=wrap;html=1;fillColor=#eeeeee;strokeColor=#36393d;rotation=0;fontSize=10;" vertex="1" parent="1">
        <mxGeometry x="1190" y="850" width="60" height="20" as="geometry" />
    </mxCell><mxCell id="in_RMUS_9" value="File" style="shape=delay;whiteSpace=wrap;html=1;fillColor=#eeeeee;strokeColor=#36393d;rotation=0;fontSize=10;" vertex="1" parent="1">
        <mxGeometry x="1670" y="850" width="60" height="20" as="geometry" />
    </mxCell><mxCell id="out_ISHIFT S4_10" value="Idoc XML" style="shape=delay;whiteSpace=wrap;html=1;fillColor=#eeeeee;strokeColor=#36393d;rotation=0;fontSize=10;" vertex="1" parent="1">
        <mxGeometry x="550" y="940" width="60" height="20" as="geometry" />
    </mxCell><mxCell id="out_iShift Tibco_10" value="" style="shape=delay;whiteSpace=wrap;html=1;fillColor=#eeeeee;strokeColor=#36393d;rotation=0;fontSize=10;" vertex="1" parent="1">
        <mxGeometry x="1030" y="940" width="60" height="20" as="geometry" />
    </mxCell><mxCell id="in_iShift Tibco_10" value="" style="shape=delay;whiteSpace=wrap;html=1;fillColor=#eeeeee;strokeColor=#36393d;rotation=0;fontSize=10;" vertex="1" parent="1">
        <mxGeometry x="950" y="940" width="60" height="20" as="geometry" />
    </mxCell><mxCell id="out_FFT External_10" value="" style="shape=delay;whiteSpace=wrap;html=1;fillColor=#eeeeee;strokeColor=#36393d;rotation=0;fontSize=10;" vertex="1" parent="1">
        <mxGeometry x="1270" y="940" width="60" height="20" as="geometry" />
    </mxCell><mxCell id="in_FFT External_10" value="" style="shape=delay;whiteSpace=wrap;html=1;fillColor=#eeeeee;strokeColor=#36393d;rotation=0;fontSize=10;" vertex="1" parent="1">
        <mxGeometry x="1190" y="940" width="60" height="20" as="geometry" />
    </mxCell><mxCell id="in_RMUS_10" value="File" style="shape=delay;whiteSpace=wrap;html=1;fillColor=#eeeeee;strokeColor=#36393d;rotation=0;fontSize=10;" vertex="1" parent="1">
        <mxGeometry x="1670" y="940" width="60" height="20" as="geometry" />
    </mxCell><mxCell id="out_ISHIFT S4_11" value="Idoc XML" style="shape=delay;whiteSpace=wrap;html=1;fillColor=#eeeeee;strokeColor=#36393d;rotation=0;fontSize=10;" vertex="1" parent="1">
        <mxGeometry x="550" y="1030" width="60" height="20" as="geometry" />
    </mxCell><mxCell id="out_iShift Tibco_11" value="" style="shape=delay;whiteSpace=wrap;html=1;fillColor=#eeeeee;strokeColor=#36393d;rotation=0;fontSize=10;" vertex="1" parent="1">
        <mxGeometry x="1030" y="1030" width="60" height="20" as="geometry" />
    </mxCell><mxCell id="in_iShift Tibco_11" value="" style="shape=delay;whiteSpace=wrap;html=1;fillColor=#eeeeee;strokeColor=#36393d;rotation=0;fontSize=10;" vertex="1" parent="1">
        <mxGeometry x="950" y="1030" width="60" height="20" as="geometry" />
    </mxCell><mxCell id="out_FFT External_11" value="" style="shape=delay;whiteSpace=wrap;html=1;fillColor=#eeeeee;strokeColor=#36393d;rotation=0;fontSize=10;" vertex="1" parent="1">
        <mxGeometry x="1270" y="1030" width="60" height="20" as="geometry" />
    </mxCell><mxCell id="in_FFT External_11" value="" style="shape=delay;whiteSpace=wrap;html=1;fillColor=#eeeeee;strokeColor=#36393d;rotation=0;fontSize=10;" vertex="1" parent="1">
        <mxGeometry x="1190" y="1030" width="60" height="20" as="geometry" />
    </mxCell><mxCell id="in_RMUS_11" value="File" style="shape=delay;whiteSpace=wrap;html=1;fillColor=#eeeeee;strokeColor=#36393d;rotation=0;fontSize=10;" vertex="1" parent="1">
        <mxGeometry x="1670" y="1030" width="60" height="20" as="geometry" />
    </mxCell><mxCell id="out_ISHIFT S4_12" value="File" style="shape=delay;whiteSpace=wrap;html=1;fillColor=#eeeeee;strokeColor=#36393d;rotation=0;fontSize=10;" vertex="1" parent="1">
        <mxGeometry x="550" y="1120" width="60" height="20" as="geometry" />
    </mxCell><mxCell id="out_FFT External_12" value="" style="shape=delay;whiteSpace=wrap;html=1;fillColor=#eeeeee;strokeColor=#36393d;rotation=0;fontSize=10;" vertex="1" parent="1">
        <mxGeometry x="1270" y="1120" width="60" height="20" as="geometry" />
    </mxCell><mxCell id="in_FFT External_12" value="" style="shape=delay;whiteSpace=wrap;html=1;fillColor=#eeeeee;strokeColor=#36393d;rotation=0;fontSize=10;" vertex="1" parent="1">
        <mxGeometry x="1190" y="1120" width="60" height="20" as="geometry" />
    </mxCell><mxCell id="in_RMUS_12" value="File" style="shape=delay;whiteSpace=wrap;html=1;fillColor=#eeeeee;strokeColor=#36393d;rotation=0;fontSize=10;" vertex="1" parent="1">
        <mxGeometry x="1670" y="1120" width="60" height="20" as="geometry" />
    </mxCell><mxCell id="out_ISHIFT S4_13" value="File" style="shape=delay;whiteSpace=wrap;html=1;fillColor=#eeeeee;strokeColor=#36393d;rotation=0;fontSize=10;" vertex="1" parent="1">
        <mxGeometry x="550" y="1210" width="60" height="20" as="geometry" />
    </mxCell><mxCell id="out_iShift Tibco_13" value="" style="shape=delay;whiteSpace=wrap;html=1;fillColor=#eeeeee;strokeColor=#36393d;rotation=0;fontSize=10;" vertex="1" parent="1">
        <mxGeometry x="1030" y="1210" width="60" height="20" as="geometry" />
    </mxCell><mxCell id="in_iShift Tibco_13" value="" style="shape=delay;whiteSpace=wrap;html=1;fillColor=#eeeeee;strokeColor=#36393d;rotation=0;fontSize=10;" vertex="1" parent="1">
        <mxGeometry x="950" y="1210" width="60" height="20" as="geometry" />
    </mxCell><mxCell id="out_FFT External_13" value="" style="shape=delay;whiteSpace=wrap;html=1;fillColor=#eeeeee;strokeColor=#36393d;rotation=0;fontSize=10;" vertex="1" parent="1">
        <mxGeometry x="1270" y="1210" width="60" height="20" as="geometry" />
    </mxCell><mxCell id="in_FFT External_13" value="" style="shape=delay;whiteSpace=wrap;html=1;fillColor=#eeeeee;strokeColor=#36393d;rotation=0;fontSize=10;" vertex="1" parent="1">
        <mxGeometry x="1190" y="1210" width="60" height="20" as="geometry" />
    </mxCell><mxCell id="in_RMUS_13" value="File" style="shape=delay;whiteSpace=wrap;html=1;fillColor=#eeeeee;strokeColor=#36393d;rotation=0;fontSize=10;" vertex="1" parent="1">
        <mxGeometry x="1670" y="1210" width="60" height="20" as="geometry" />
    </mxCell><mxCell id="out_ISHIFT S4_14" value="File" style="shape=delay;whiteSpace=wrap;html=1;fillColor=#eeeeee;strokeColor=#36393d;rotation=0;fontSize=10;" vertex="1" parent="1">
        <mxGeometry x="550" y="1300" width="60" height="20" as="geometry" />
    </mxCell><mxCell id="in_RMUS_14" value="File" style="shape=delay;whiteSpace=wrap;html=1;fillColor=#eeeeee;strokeColor=#36393d;rotation=0;fontSize=10;" vertex="1" parent="1">
        <mxGeometry x="1670" y="1300" width="60" height="20" as="geometry" />
    </mxCell><mxCell id="out_ISHIFT S4_15" value="File" style="shape=delay;whiteSpace=wrap;html=1;fillColor=#eeeeee;strokeColor=#36393d;rotation=0;fontSize=10;" vertex="1" parent="1">
        <mxGeometry x="550" y="1390" width="60" height="20" as="geometry" />
    </mxCell><mxCell id="out_FFT External_15" value="" style="shape=delay;whiteSpace=wrap;html=1;fillColor=#eeeeee;strokeColor=#36393d;rotation=0;fontSize=10;" vertex="1" parent="1">
        <mxGeometry x="1270" y="1390" width="60" height="20" as="geometry" />
    </mxCell><mxCell id="in_FFT External_15" value="" style="shape=delay;whiteSpace=wrap;html=1;fillColor=#eeeeee;strokeColor=#36393d;rotation=0;fontSize=10;" vertex="1" parent="1">
        <mxGeometry x="1190" y="1390" width="60" height="20" as="geometry" />
    </mxCell><mxCell id="in_RMUS_15" value="File" style="shape=delay;whiteSpace=wrap;html=1;fillColor=#eeeeee;strokeColor=#36393d;rotation=0;fontSize=10;" vertex="1" parent="1">
        <mxGeometry x="1670" y="1390" width="60" height="20" as="geometry" />
    </mxCell><mxCell id="out_ISHIFT S4_16" value="ALE Idoc" style="shape=delay;whiteSpace=wrap;html=1;fillColor=#eeeeee;strokeColor=#36393d;rotation=0;fontSize=10;" vertex="1" parent="1">
        <mxGeometry x="550" y="1480" width="60" height="20" as="geometry" />
    </mxCell><mxCell id="out_iShift Tibco_16" value="" style="shape=delay;whiteSpace=wrap;html=1;fillColor=#eeeeee;strokeColor=#36393d;rotation=0;fontSize=10;" vertex="1" parent="1">
        <mxGeometry x="1030" y="1480" width="60" height="20" as="geometry" />
    </mxCell><mxCell id="in_iShift Tibco_16" value="" style="shape=delay;whiteSpace=wrap;html=1;fillColor=#eeeeee;strokeColor=#36393d;rotation=0;fontSize=10;" vertex="1" parent="1">
        <mxGeometry x="950" y="1480" width="60" height="20" as="geometry" />
    </mxCell><mxCell id="in_RMUS_16" value="File" style="shape=delay;whiteSpace=wrap;html=1;fillColor=#eeeeee;strokeColor=#36393d;rotation=0;fontSize=10;" vertex="1" parent="1">
        <mxGeometry x="1670" y="1480" width="60" height="20" as="geometry" />
    </mxCell><mxCell id="out_ISHIFT S4_17" value="ALE Idoc" style="shape=delay;whiteSpace=wrap;html=1;fillColor=#eeeeee;strokeColor=#36393d;rotation=0;fontSize=10;" vertex="1" parent="1">
        <mxGeometry x="550" y="1570" width="60" height="20" as="geometry" />
    </mxCell><mxCell id="out_iShift Tibco_17" value="" style="shape=delay;whiteSpace=wrap;html=1;fillColor=#eeeeee;strokeColor=#36393d;rotation=0;fontSize=10;" vertex="1" parent="1">
        <mxGeometry x="1030" y="1570" width="60" height="20" as="geometry" />
    </mxCell><mxCell id="in_iShift Tibco_17" value="" style="shape=delay;whiteSpace=wrap;html=1;fillColor=#eeeeee;strokeColor=#36393d;rotation=0;fontSize=10;" vertex="1" parent="1">
        <mxGeometry x="950" y="1570" width="60" height="20" as="geometry" />
    </mxCell><mxCell id="out_GAMS (API gateway - Layer7)_17" value="" style="shape=delay;whiteSpace=wrap;html=1;fillColor=#eeeeee;strokeColor=#36393d;rotation=0;fontSize=10;" vertex="1" parent="1">
        <mxGeometry x="1510" y="1570" width="60" height="20" as="geometry" />
    </mxCell><mxCell id="in_GAMS (API gateway - Layer7)_17" value="" style="shape=delay;whiteSpace=wrap;html=1;fillColor=#eeeeee;strokeColor=#36393d;rotation=0;fontSize=10;" vertex="1" parent="1">
        <mxGeometry x="1430" y="1570" width="60" height="20" as="geometry" />
    </mxCell><mxCell id="in_RMUS_17" value="File" style="shape=delay;whiteSpace=wrap;html=1;fillColor=#eeeeee;strokeColor=#36393d;rotation=0;fontSize=10;" vertex="1" parent="1">
        <mxGeometry x="1670" y="1570" width="60" height="20" as="geometry" />
    </mxCell><mxCell id="out_ISHIFT S4_18" value="ALE Idoc" style="shape=delay;whiteSpace=wrap;html=1;fillColor=#eeeeee;strokeColor=#36393d;rotation=0;fontSize=10;" vertex="1" parent="1">
        <mxGeometry x="550" y="1660" width="60" height="20" as="geometry" />
    </mxCell><mxCell id="out_iShift Tibco_18" value="" style="shape=delay;whiteSpace=wrap;html=1;fillColor=#eeeeee;strokeColor=#36393d;rotation=0;fontSize=10;" vertex="1" parent="1">
        <mxGeometry x="1030" y="1660" width="60" height="20" as="geometry" />
    </mxCell><mxCell id="in_iShift Tibco_18" value="" style="shape=delay;whiteSpace=wrap;html=1;fillColor=#eeeeee;strokeColor=#36393d;rotation=0;fontSize=10;" vertex="1" parent="1">
        <mxGeometry x="950" y="1660" width="60" height="20" as="geometry" />
    </mxCell><mxCell id="out_FFT External_18" value="" style="shape=delay;whiteSpace=wrap;html=1;fillColor=#eeeeee;strokeColor=#36393d;rotation=0;fontSize=10;" vertex="1" parent="1">
        <mxGeometry x="1270" y="1660" width="60" height="20" as="geometry" />
    </mxCell><mxCell id="in_FFT External_18" value="" style="shape=delay;whiteSpace=wrap;html=1;fillColor=#eeeeee;strokeColor=#36393d;rotation=0;fontSize=10;" vertex="1" parent="1">
        <mxGeometry x="1190" y="1660" width="60" height="20" as="geometry" />
    </mxCell><mxCell id="in_RMUS_18" value="File" style="shape=delay;whiteSpace=wrap;html=1;fillColor=#eeeeee;strokeColor=#36393d;rotation=0;fontSize=10;" vertex="1" parent="1">
        <mxGeometry x="1670" y="1660" width="60" height="20" as="geometry" />
    </mxCell><mxCell id="out_ISHIFT S4_19" value="ALE Idoc" style="shape=delay;whiteSpace=wrap;html=1;fillColor=#eeeeee;strokeColor=#36393d;rotation=0;fontSize=10;" vertex="1" parent="1">
        <mxGeometry x="550" y="1750" width="60" height="20" as="geometry" />
    </mxCell><mxCell id="out_iShift Tibco_19" value="" style="shape=delay;whiteSpace=wrap;html=1;fillColor=#eeeeee;strokeColor=#36393d;rotation=0;fontSize=10;" vertex="1" parent="1">
        <mxGeometry x="1030" y="1750" width="60" height="20" as="geometry" />
    </mxCell><mxCell id="in_iShift Tibco_19" value="" style="shape=delay;whiteSpace=wrap;html=1;fillColor=#eeeeee;strokeColor=#36393d;rotation=0;fontSize=10;" vertex="1" parent="1">
        <mxGeometry x="950" y="1750" width="60" height="20" as="geometry" />
    </mxCell><mxCell id="out_FFT External_19" value="" style="shape=delay;whiteSpace=wrap;html=1;fillColor=#eeeeee;strokeColor=#36393d;rotation=0;fontSize=10;" vertex="1" parent="1">
        <mxGeometry x="1270" y="1750" width="60" height="20" as="geometry" />
    </mxCell><mxCell id="in_FFT External_19" value="" style="shape=delay;whiteSpace=wrap;html=1;fillColor=#eeeeee;strokeColor=#36393d;rotation=0;fontSize=10;" vertex="1" parent="1">
        <mxGeometry x="1190" y="1750" width="60" height="20" as="geometry" />
    </mxCell><mxCell id="in_RMUS_19" value="Idoc XML" style="shape=delay;whiteSpace=wrap;html=1;fillColor=#eeeeee;strokeColor=#36393d;rotation=0;fontSize=10;" vertex="1" parent="1">
        <mxGeometry x="1670" y="1750" width="60" height="20" as="geometry" />
    </mxCell><mxCell id="out_ISHIFT S4_20" value="ALE Idoc" style="shape=delay;whiteSpace=wrap;html=1;fillColor=#eeeeee;strokeColor=#36393d;rotation=0;fontSize=10;" vertex="1" parent="1">
        <mxGeometry x="550" y="1840" width="60" height="20" as="geometry" />
    </mxCell><mxCell id="out_iShift Tibco_20" value="" style="shape=delay;whiteSpace=wrap;html=1;fillColor=#eeeeee;strokeColor=#36393d;rotation=0;fontSize=10;" vertex="1" parent="1">
        <mxGeometry x="1030" y="1840" width="60" height="20" as="geometry" />
    </mxCell><mxCell id="in_iShift Tibco_20" value="" style="shape=delay;whiteSpace=wrap;html=1;fillColor=#eeeeee;strokeColor=#36393d;rotation=0;fontSize=10;" vertex="1" parent="1">
        <mxGeometry x="950" y="1840" width="60" height="20" as="geometry" />
    </mxCell><mxCell id="out_GAMS (API gateway - Layer7)_20" value="" style="shape=delay;whiteSpace=wrap;html=1;fillColor=#eeeeee;strokeColor=#36393d;rotation=0;fontSize=10;" vertex="1" parent="1">
        <mxGeometry x="1510" y="1840" width="60" height="20" as="geometry" />
    </mxCell><mxCell id="in_GAMS (API gateway - Layer7)_20" value="" style="shape=delay;whiteSpace=wrap;html=1;fillColor=#eeeeee;strokeColor=#36393d;rotation=0;fontSize=10;" vertex="1" parent="1">
        <mxGeometry x="1430" y="1840" width="60" height="20" as="geometry" />
    </mxCell><mxCell id="out_FFT External_20" value="" style="shape=delay;whiteSpace=wrap;html=1;fillColor=#eeeeee;strokeColor=#36393d;rotation=0;fontSize=10;" vertex="1" parent="1">
        <mxGeometry x="1270" y="1840" width="60" height="20" as="geometry" />
    </mxCell><mxCell id="in_FFT External_20" value="" style="shape=delay;whiteSpace=wrap;html=1;fillColor=#eeeeee;strokeColor=#36393d;rotation=0;fontSize=10;" vertex="1" parent="1">
        <mxGeometry x="1190" y="1840" width="60" height="20" as="geometry" />
    </mxCell><mxCell id="in_RMUS_20" value="Idoc XML" style="shape=delay;whiteSpace=wrap;html=1;fillColor=#eeeeee;strokeColor=#36393d;rotation=0;fontSize=10;" vertex="1" parent="1">
        <mxGeometry x="1670" y="1840" width="60" height="20" as="geometry" />
    </mxCell><mxCell id="out_ISHIFT S4_21" value="ALE Idoc" style="shape=delay;whiteSpace=wrap;html=1;fillColor=#eeeeee;strokeColor=#36393d;rotation=0;fontSize=10;" vertex="1" parent="1">
        <mxGeometry x="550" y="1930" width="60" height="20" as="geometry" />
    </mxCell><mxCell id="out_iShift Tibco_21" value="" style="shape=delay;whiteSpace=wrap;html=1;fillColor=#eeeeee;strokeColor=#36393d;rotation=0;fontSize=10;" vertex="1" parent="1">
        <mxGeometry x="1030" y="1930" width="60" height="20" as="geometry" />
    </mxCell><mxCell id="in_iShift Tibco_21" value="" style="shape=delay;whiteSpace=wrap;html=1;fillColor=#eeeeee;strokeColor=#36393d;rotation=0;fontSize=10;" vertex="1" parent="1">
        <mxGeometry x="950" y="1930" width="60" height="20" as="geometry" />
    </mxCell><mxCell id="out_FFT External_21" value="" style="shape=delay;whiteSpace=wrap;html=1;fillColor=#eeeeee;strokeColor=#36393d;rotation=0;fontSize=10;" vertex="1" parent="1">
        <mxGeometry x="1270" y="1930" width="60" height="20" as="geometry" />
    </mxCell><mxCell id="in_FFT External_21" value="" style="shape=delay;whiteSpace=wrap;html=1;fillColor=#eeeeee;strokeColor=#36393d;rotation=0;fontSize=10;" vertex="1" parent="1">
        <mxGeometry x="1190" y="1930" width="60" height="20" as="geometry" />
    </mxCell><mxCell id="in_RMUS_21" value="File" style="shape=delay;whiteSpace=wrap;html=1;fillColor=#eeeeee;strokeColor=#36393d;rotation=0;fontSize=10;" vertex="1" parent="1">
        <mxGeometry x="1670" y="1930" width="60" height="20" as="geometry" />
    </mxCell><mxCell id="conn_ISHIFT MDG_iShift Tibco_0" value="" invert="true" style="edgeStyle=orthogonalEdgeStyle;rounded=0;fillColor=#dae8fc;strokeColor=#7ea6e0;orthogonalLoop=1;jettySize=auto;html=1;strokeWidth=3" edge="1" parent="1" source="out_ISHIFT MDG_0" target="in_iShift Tibco_0">
        <mxGeometry relative="1" as="geometry" />
    </mxCell><mxCell id="conn_iShift Tibco_FFT External_0" value="" invert="true" style="edgeStyle=orthogonalEdgeStyle;rounded=0;fillColor=#dae8fc;strokeColor=#7ea6e0;orthogonalLoop=1;jettySize=auto;html=1;strokeWidth=3" edge="1" parent="1" source="out_iShift Tibco_0" target="in_FFT External_0">
        <mxGeometry relative="1" as="geometry" />
    </mxCell><mxCell id="conn_FFT External_RMUS_0" value="" invert="true" style="edgeStyle=orthogonalEdgeStyle;rounded=0;fillColor=#dae8fc;strokeColor=#7ea6e0;orthogonalLoop=1;jettySize=auto;html=1;strokeWidth=3" edge="1" parent="1" source="out_FFT External_0" target="in_RMUS_0">
        <mxGeometry relative="1" as="geometry" />
    </mxCell><mxCell id="conn_ISHIFT MDG_iShift Tibco_1" value="" invert="true" style="edgeStyle=orthogonalEdgeStyle;rounded=0;fillColor=#dae8fc;strokeColor=#7ea6e0;orthogonalLoop=1;jettySize=auto;html=1;strokeWidth=3" edge="1" parent="1" source="out_ISHIFT MDG_1" target="in_iShift Tibco_1">
        <mxGeometry relative="1" as="geometry" />
    </mxCell><mxCell id="conn_iShift Tibco_FFT External_1" value="" invert="true" style="edgeStyle=orthogonalEdgeStyle;rounded=0;fillColor=#dae8fc;strokeColor=#7ea6e0;orthogonalLoop=1;jettySize=auto;html=1;strokeWidth=3" edge="1" parent="1" source="out_iShift Tibco_1" target="in_FFT External_1">
        <mxGeometry relative="1" as="geometry" />
    </mxCell><mxCell id="conn_FFT External_RMUS_1" value="" invert="true" style="edgeStyle=orthogonalEdgeStyle;rounded=0;fillColor=#dae8fc;strokeColor=#7ea6e0;orthogonalLoop=1;jettySize=auto;html=1;strokeWidth=3" edge="1" parent="1" source="out_FFT External_1" target="in_RMUS_1">
        <mxGeometry relative="1" as="geometry" />
    </mxCell><mxCell id="conn_ISHIFT MDG_iShift Tibco_2" value="" invert="true" style="edgeStyle=orthogonalEdgeStyle;rounded=0;fillColor=#dae8fc;strokeColor=#7ea6e0;orthogonalLoop=1;jettySize=auto;html=1;strokeWidth=3" edge="1" parent="1" source="out_ISHIFT MDG_2" target="in_iShift Tibco_2">
        <mxGeometry relative="1" as="geometry" />
    </mxCell><mxCell id="conn_iShift Tibco_FFT External_2" value="" invert="true" style="edgeStyle=orthogonalEdgeStyle;rounded=0;fillColor=#dae8fc;strokeColor=#7ea6e0;orthogonalLoop=1;jettySize=auto;html=1;strokeWidth=3" edge="1" parent="1" source="out_iShift Tibco_2" target="in_FFT External_2">
        <mxGeometry relative="1" as="geometry" />
    </mxCell><mxCell id="conn_FFT External_RMUS_2" value="" invert="true" style="edgeStyle=orthogonalEdgeStyle;rounded=0;fillColor=#dae8fc;strokeColor=#7ea6e0;orthogonalLoop=1;jettySize=auto;html=1;strokeWidth=3" edge="1" parent="1" source="out_FFT External_2" target="in_RMUS_2">
        <mxGeometry relative="1" as="geometry" />
    </mxCell><mxCell id="conn_Workday_iShift Tibco_3" value="" invert="true" style="edgeStyle=orthogonalEdgeStyle;rounded=0;fillColor=#dae8fc;strokeColor=#7ea6e0;orthogonalLoop=1;jettySize=auto;html=1;strokeWidth=3" edge="1" parent="1" source="out_Workday_3" target="in_iShift Tibco_3">
        <mxGeometry relative="1" as="geometry" />
    </mxCell><mxCell id="conn_iShift Tibco_RMUS_3" value="" invert="true" style="edgeStyle=orthogonalEdgeStyle;rounded=0;fillColor=#dae8fc;strokeColor=#7ea6e0;orthogonalLoop=1;jettySize=auto;html=1;strokeWidth=3" edge="1" parent="1" source="out_iShift Tibco_3" target="in_RMUS_3">
        <mxGeometry relative="1" as="geometry" />
    </mxCell><mxCell id="conn_ISHIFT S4_iShift Tibco_4" value="" invert="true" style="edgeStyle=orthogonalEdgeStyle;rounded=0;fillColor=#dae8fc;strokeColor=#7ea6e0;orthogonalLoop=1;jettySize=auto;html=1;strokeWidth=3" edge="1" parent="1" source="out_ISHIFT S4_4" target="in_iShift Tibco_4">
        <mxGeometry relative="1" as="geometry" />
    </mxCell><mxCell id="conn_iShift Tibco_FFT External_4" value="" invert="true" style="edgeStyle=orthogonalEdgeStyle;rounded=0;fillColor=#dae8fc;strokeColor=#7ea6e0;orthogonalLoop=1;jettySize=auto;html=1;strokeWidth=3" edge="1" parent="1" source="out_iShift Tibco_4" target="in_FFT External_4">
        <mxGeometry relative="1" as="geometry" />
    </mxCell><mxCell id="conn_FFT External_RMUS_4" value="" invert="true" style="edgeStyle=orthogonalEdgeStyle;rounded=0;fillColor=#dae8fc;strokeColor=#7ea6e0;orthogonalLoop=1;jettySize=auto;html=1;strokeWidth=3" edge="1" parent="1" source="out_FFT External_4" target="in_RMUS_4">
        <mxGeometry relative="1" as="geometry" />
    </mxCell><mxCell id="conn_ISHIFT S4_iShift Tibco_5" value="" invert="true" style="edgeStyle=orthogonalEdgeStyle;rounded=0;fillColor=#ffcd28;strokeColor=#d79b00;orthogonalLoop=1;jettySize=auto;html=1;strokeWidth=3" edge="1" parent="1" source="in_iShift Tibco_5" target="out_ISHIFT S4_5">
        <mxGeometry relative="1" as="geometry" />
    </mxCell><mxCell id="conn_iShift Tibco_FFT External_5" value="" invert="true" style="edgeStyle=orthogonalEdgeStyle;rounded=0;fillColor=#ffcd28;strokeColor=#d79b00;orthogonalLoop=1;jettySize=auto;html=1;strokeWidth=3" edge="1" parent="1" source="in_FFT External_5" target="out_iShift Tibco_5">
        <mxGeometry relative="1" as="geometry" />
    </mxCell><mxCell id="conn_FFT External_RMUS_5" value="" invert="true" style="edgeStyle=orthogonalEdgeStyle;rounded=0;fillColor=#ffcd28;strokeColor=#d79b00;orthogonalLoop=1;jettySize=auto;html=1;strokeWidth=3" edge="1" parent="1" source="in_RMUS_5" target="out_FFT External_5">
        <mxGeometry relative="1" as="geometry" />
    </mxCell><mxCell id="conn_ISHIFT S4_iShift Tibco_6" value="" invert="true" style="edgeStyle=orthogonalEdgeStyle;rounded=0;fillColor=#ffcd28;strokeColor=#d79b00;orthogonalLoop=1;jettySize=auto;html=1;strokeWidth=3" edge="1" parent="1" source="in_iShift Tibco_6" target="out_ISHIFT S4_6">
        <mxGeometry relative="1" as="geometry" />
    </mxCell><mxCell id="conn_iShift Tibco_FFT External_6" value="" invert="true" style="edgeStyle=orthogonalEdgeStyle;rounded=0;fillColor=#ffcd28;strokeColor=#d79b00;orthogonalLoop=1;jettySize=auto;html=1;strokeWidth=3" edge="1" parent="1" source="in_FFT External_6" target="out_iShift Tibco_6">
        <mxGeometry relative="1" as="geometry" />
    </mxCell><mxCell id="conn_FFT External_RMUS_6" value="" invert="true" style="edgeStyle=orthogonalEdgeStyle;rounded=0;fillColor=#ffcd28;strokeColor=#d79b00;orthogonalLoop=1;jettySize=auto;html=1;strokeWidth=3" edge="1" parent="1" source="in_RMUS_6" target="out_FFT External_6">
        <mxGeometry relative="1" as="geometry" />
    </mxCell><mxCell id="conn_ISHIFT S4_FFT Internal_7" value="" invert="true" style="edgeStyle=orthogonalEdgeStyle;rounded=0;fillColor=#ffcd28;strokeColor=#d79b00;orthogonalLoop=1;jettySize=auto;html=1;strokeWidth=3" edge="1" parent="1" source="in_FFT Internal_7" target="out_ISHIFT S4_7">
        <mxGeometry relative="1" as="geometry" />
    </mxCell><mxCell id="conn_FFT Internal_iShift Tibco_7" value="" invert="true" style="edgeStyle=orthogonalEdgeStyle;rounded=0;fillColor=#ffcd28;strokeColor=#d79b00;orthogonalLoop=1;jettySize=auto;html=1;strokeWidth=3" edge="1" parent="1" source="in_iShift Tibco_7" target="out_FFT Internal_7">
        <mxGeometry relative="1" as="geometry" />
    </mxCell><mxCell id="conn_iShift Tibco_FFT External_7" value="" invert="true" style="edgeStyle=orthogonalEdgeStyle;rounded=0;fillColor=#ffcd28;strokeColor=#d79b00;orthogonalLoop=1;jettySize=auto;html=1;strokeWidth=3" edge="1" parent="1" source="in_FFT External_7" target="out_iShift Tibco_7">
        <mxGeometry relative="1" as="geometry" />
    </mxCell><mxCell id="conn_FFT External_RMUS_7" value="" invert="true" style="edgeStyle=orthogonalEdgeStyle;rounded=0;fillColor=#ffcd28;strokeColor=#d79b00;orthogonalLoop=1;jettySize=auto;html=1;strokeWidth=3" edge="1" parent="1" source="in_RMUS_7" target="out_FFT External_7">
        <mxGeometry relative="1" as="geometry" />
    </mxCell><mxCell id="conn_ISHIFT S4_iShift Tibco_8" value="" invert="true" style="edgeStyle=orthogonalEdgeStyle;rounded=0;fillColor=#dae8fc;strokeColor=#7ea6e0;orthogonalLoop=1;jettySize=auto;html=1;strokeWidth=3" edge="1" parent="1" source="out_ISHIFT S4_8" target="in_iShift Tibco_8">
        <mxGeometry relative="1" as="geometry" />
    </mxCell><mxCell id="conn_iShift Tibco_FFT External_8" value="" invert="true" style="edgeStyle=orthogonalEdgeStyle;rounded=0;fillColor=#dae8fc;strokeColor=#7ea6e0;orthogonalLoop=1;jettySize=auto;html=1;strokeWidth=3" edge="1" parent="1" source="out_iShift Tibco_8" target="in_FFT External_8">
        <mxGeometry relative="1" as="geometry" />
    </mxCell><mxCell id="conn_FFT External_RMUS_8" value="" invert="true" style="edgeStyle=orthogonalEdgeStyle;rounded=0;fillColor=#dae8fc;strokeColor=#7ea6e0;orthogonalLoop=1;jettySize=auto;html=1;strokeWidth=3" edge="1" parent="1" source="out_FFT External_8" target="in_RMUS_8">
        <mxGeometry relative="1" as="geometry" />
    </mxCell><mxCell id="conn_ISHIFT S4_iShift Tibco_9" value="" invert="true" style="edgeStyle=orthogonalEdgeStyle;rounded=0;fillColor=#ffcd28;strokeColor=#d79b00;orthogonalLoop=1;jettySize=auto;html=1;strokeWidth=3" edge="1" parent="1" source="in_iShift Tibco_9" target="out_ISHIFT S4_9">
        <mxGeometry relative="1" as="geometry" />
    </mxCell><mxCell id="conn_iShift Tibco_FFT External_9" value="" invert="true" style="edgeStyle=orthogonalEdgeStyle;rounded=0;fillColor=#ffcd28;strokeColor=#d79b00;orthogonalLoop=1;jettySize=auto;html=1;strokeWidth=3" edge="1" parent="1" source="in_FFT External_9" target="out_iShift Tibco_9">
        <mxGeometry relative="1" as="geometry" />
    </mxCell><mxCell id="conn_FFT External_RMUS_9" value="" invert="true" style="edgeStyle=orthogonalEdgeStyle;rounded=0;fillColor=#ffcd28;strokeColor=#d79b00;orthogonalLoop=1;jettySize=auto;html=1;strokeWidth=3" edge="1" parent="1" source="in_RMUS_9" target="out_FFT External_9">
        <mxGeometry relative="1" as="geometry" />
    </mxCell><mxCell id="conn_ISHIFT S4_iShift Tibco_10" value="" invert="true" style="edgeStyle=orthogonalEdgeStyle;rounded=0;fillColor=#ffcd28;strokeColor=#d79b00;orthogonalLoop=1;jettySize=auto;html=1;strokeWidth=3" edge="1" parent="1" source="in_iShift Tibco_10" target="out_ISHIFT S4_10">
        <mxGeometry relative="1" as="geometry" />
    </mxCell><mxCell id="conn_iShift Tibco_FFT External_10" value="" invert="true" style="edgeStyle=orthogonalEdgeStyle;rounded=0;fillColor=#ffcd28;strokeColor=#d79b00;orthogonalLoop=1;jettySize=auto;html=1;strokeWidth=3" edge="1" parent="1" source="in_FFT External_10" target="out_iShift Tibco_10">
        <mxGeometry relative="1" as="geometry" />
    </mxCell><mxCell id="conn_FFT External_RMUS_10" value="" invert="true" style="edgeStyle=orthogonalEdgeStyle;rounded=0;fillColor=#ffcd28;strokeColor=#d79b00;orthogonalLoop=1;jettySize=auto;html=1;strokeWidth=3" edge="1" parent="1" source="in_RMUS_10" target="out_FFT External_10">
        <mxGeometry relative="1" as="geometry" />
    </mxCell><mxCell id="conn_ISHIFT S4_iShift Tibco_11" value="" invert="true" style="edgeStyle=orthogonalEdgeStyle;rounded=0;fillColor=#ffcd28;strokeColor=#d79b00;orthogonalLoop=1;jettySize=auto;html=1;strokeWidth=3" edge="1" parent="1" source="in_iShift Tibco_11" target="out_ISHIFT S4_11">
        <mxGeometry relative="1" as="geometry" />
    </mxCell><mxCell id="conn_iShift Tibco_FFT External_11" value="" invert="true" style="edgeStyle=orthogonalEdgeStyle;rounded=0;fillColor=#ffcd28;strokeColor=#d79b00;orthogonalLoop=1;jettySize=auto;html=1;strokeWidth=3" edge="1" parent="1" source="in_FFT External_11" target="out_iShift Tibco_11">
        <mxGeometry relative="1" as="geometry" />
    </mxCell><mxCell id="conn_FFT External_RMUS_11" value="" invert="true" style="edgeStyle=orthogonalEdgeStyle;rounded=0;fillColor=#ffcd28;strokeColor=#d79b00;orthogonalLoop=1;jettySize=auto;html=1;strokeWidth=3" edge="1" parent="1" source="in_RMUS_11" target="out_FFT External_11">
        <mxGeometry relative="1" as="geometry" />
    </mxCell><mxCell id="conn_ISHIFT S4_FFT External_12" value="" invert="true" style="edgeStyle=orthogonalEdgeStyle;rounded=0;fillColor=#dae8fc;strokeColor=#7ea6e0;orthogonalLoop=1;jettySize=auto;html=1;strokeWidth=3" edge="1" parent="1" source="out_ISHIFT S4_12" target="in_FFT External_12">
        <mxGeometry relative="1" as="geometry" />
    </mxCell><mxCell id="conn_FFT External_RMUS_12" value="" invert="true" style="edgeStyle=orthogonalEdgeStyle;rounded=0;fillColor=#dae8fc;strokeColor=#7ea6e0;orthogonalLoop=1;jettySize=auto;html=1;strokeWidth=3" edge="1" parent="1" source="out_FFT External_12" target="in_RMUS_12">
        <mxGeometry relative="1" as="geometry" />
    </mxCell><mxCell id="conn_ISHIFT S4_iShift Tibco_13" value="" invert="true" style="edgeStyle=orthogonalEdgeStyle;rounded=0;fillColor=#dae8fc;strokeColor=#7ea6e0;orthogonalLoop=1;jettySize=auto;html=1;strokeWidth=3" edge="1" parent="1" source="out_ISHIFT S4_13" target="in_iShift Tibco_13">
        <mxGeometry relative="1" as="geometry" />
    </mxCell><mxCell id="conn_iShift Tibco_FFT External_13" value="" invert="true" style="edgeStyle=orthogonalEdgeStyle;rounded=0;fillColor=#dae8fc;strokeColor=#7ea6e0;orthogonalLoop=1;jettySize=auto;html=1;strokeWidth=3" edge="1" parent="1" source="out_iShift Tibco_13" target="in_FFT External_13">
        <mxGeometry relative="1" as="geometry" />
    </mxCell><mxCell id="conn_FFT External_RMUS_13" value="" invert="true" style="edgeStyle=orthogonalEdgeStyle;rounded=0;fillColor=#dae8fc;strokeColor=#7ea6e0;orthogonalLoop=1;jettySize=auto;html=1;strokeWidth=3" edge="1" parent="1" source="out_FFT External_13" target="in_RMUS_13">
        <mxGeometry relative="1" as="geometry" />
    </mxCell><mxCell id="conn_ISHIFT S4_RMUS_14" value="" invert="true" style="edgeStyle=orthogonalEdgeStyle;rounded=0;fillColor=#dae8fc;strokeColor=#7ea6e0;orthogonalLoop=1;jettySize=auto;html=1;strokeWidth=3" edge="1" parent="1" source="out_ISHIFT S4_14" target="in_RMUS_14">
        <mxGeometry relative="1" as="geometry" />
    </mxCell><mxCell id="conn_ISHIFT S4_FFT External_15" value="" invert="true" style="edgeStyle=orthogonalEdgeStyle;rounded=0;fillColor=#dae8fc;strokeColor=#7ea6e0;orthogonalLoop=1;jettySize=auto;html=1;strokeWidth=3" edge="1" parent="1" source="out_ISHIFT S4_15" target="in_FFT External_15">
        <mxGeometry relative="1" as="geometry" />
    </mxCell><mxCell id="conn_FFT External_RMUS_15" value="" invert="true" style="edgeStyle=orthogonalEdgeStyle;rounded=0;fillColor=#dae8fc;strokeColor=#7ea6e0;orthogonalLoop=1;jettySize=auto;html=1;strokeWidth=3" edge="1" parent="1" source="out_FFT External_15" target="in_RMUS_15">
        <mxGeometry relative="1" as="geometry" />
    </mxCell><mxCell id="conn_ISHIFT S4_iShift Tibco_16" value="" invert="true" style="edgeStyle=orthogonalEdgeStyle;rounded=0;fillColor=#dae8fc;strokeColor=#7ea6e0;orthogonalLoop=1;jettySize=auto;html=1;strokeWidth=3" edge="1" parent="1" source="out_ISHIFT S4_16" target="in_iShift Tibco_16">
        <mxGeometry relative="1" as="geometry" />
    </mxCell><mxCell id="conn_iShift Tibco_RMUS_16" value="" invert="true" style="edgeStyle=orthogonalEdgeStyle;rounded=0;fillColor=#dae8fc;strokeColor=#7ea6e0;orthogonalLoop=1;jettySize=auto;html=1;strokeWidth=3" edge="1" parent="1" source="out_iShift Tibco_16" target="in_RMUS_16">
        <mxGeometry relative="1" as="geometry" />
    </mxCell><mxCell id="conn_ISHIFT S4_iShift Tibco_17" value="" invert="true" style="edgeStyle=orthogonalEdgeStyle;rounded=0;fillColor=#dae8fc;strokeColor=#7ea6e0;orthogonalLoop=1;jettySize=auto;html=1;strokeWidth=3" edge="1" parent="1" source="out_ISHIFT S4_17" target="in_iShift Tibco_17">
        <mxGeometry relative="1" as="geometry" />
    </mxCell><mxCell id="conn_iShift Tibco_GAMS (API gateway - Layer7)_17" value="" invert="true" style="edgeStyle=orthogonalEdgeStyle;rounded=0;fillColor=#dae8fc;strokeColor=#7ea6e0;orthogonalLoop=1;jettySize=auto;html=1;strokeWidth=3" edge="1" parent="1" source="out_iShift Tibco_17" target="in_GAMS (API gateway - Layer7)_17">
        <mxGeometry relative="1" as="geometry" />
    </mxCell><mxCell id="conn_GAMS (API gateway - Layer7)_RMUS_17" value="" invert="true" style="edgeStyle=orthogonalEdgeStyle;rounded=0;fillColor=#dae8fc;strokeColor=#7ea6e0;orthogonalLoop=1;jettySize=auto;html=1;strokeWidth=3" edge="1" parent="1" source="out_GAMS (API gateway - Layer7)_17" target="in_RMUS_17">
        <mxGeometry relative="1" as="geometry" />
    </mxCell><mxCell id="conn_ISHIFT S4_iShift Tibco_18" value="" invert="true" style="edgeStyle=orthogonalEdgeStyle;rounded=0;fillColor=#dae8fc;strokeColor=#7ea6e0;orthogonalLoop=1;jettySize=auto;html=1;strokeWidth=3" edge="1" parent="1" source="out_ISHIFT S4_18" target="in_iShift Tibco_18">
        <mxGeometry relative="1" as="geometry" />
    </mxCell><mxCell id="conn_iShift Tibco_FFT External_18" value="" invert="true" style="edgeStyle=orthogonalEdgeStyle;rounded=0;fillColor=#dae8fc;strokeColor=#7ea6e0;orthogonalLoop=1;jettySize=auto;html=1;strokeWidth=3" edge="1" parent="1" source="out_iShift Tibco_18" target="in_FFT External_18">
        <mxGeometry relative="1" as="geometry" />
    </mxCell><mxCell id="conn_FFT External_RMUS_18" value="" invert="true" style="edgeStyle=orthogonalEdgeStyle;rounded=0;fillColor=#dae8fc;strokeColor=#7ea6e0;orthogonalLoop=1;jettySize=auto;html=1;strokeWidth=3" edge="1" parent="1" source="out_FFT External_18" target="in_RMUS_18">
        <mxGeometry relative="1" as="geometry" />
    </mxCell><mxCell id="conn_ISHIFT S4_iShift Tibco_19" value="" invert="true" style="edgeStyle=orthogonalEdgeStyle;rounded=0;fillColor=#ffcd28;strokeColor=#d79b00;orthogonalLoop=1;jettySize=auto;html=1;strokeWidth=3" edge="1" parent="1" source="in_iShift Tibco_19" target="out_ISHIFT S4_19">
        <mxGeometry relative="1" as="geometry" />
    </mxCell><mxCell id="conn_iShift Tibco_FFT External_19" value="" invert="true" style="edgeStyle=orthogonalEdgeStyle;rounded=0;fillColor=#ffcd28;strokeColor=#d79b00;orthogonalLoop=1;jettySize=auto;html=1;strokeWidth=3" edge="1" parent="1" source="in_FFT External_19" target="out_iShift Tibco_19">
        <mxGeometry relative="1" as="geometry" />
    </mxCell><mxCell id="conn_FFT External_RMUS_19" value="" invert="true" style="edgeStyle=orthogonalEdgeStyle;rounded=0;fillColor=#ffcd28;strokeColor=#d79b00;orthogonalLoop=1;jettySize=auto;html=1;strokeWidth=3" edge="1" parent="1" source="in_RMUS_19" target="out_FFT External_19">
        <mxGeometry relative="1" as="geometry" />
    </mxCell><mxCell id="conn_ISHIFT S4_iShift Tibco_20" value="" invert="true" style="edgeStyle=orthogonalEdgeStyle;rounded=0;fillColor=#ffcd28;strokeColor=#d79b00;orthogonalLoop=1;jettySize=auto;html=1;strokeWidth=3" edge="1" parent="1" source="in_iShift Tibco_20" target="out_ISHIFT S4_20">
        <mxGeometry relative="1" as="geometry" />
    </mxCell><mxCell id="conn_iShift Tibco_GAMS (API gateway - Layer7)_20" value="" invert="true" style="edgeStyle=orthogonalEdgeStyle;rounded=0;fillColor=#ffcd28;strokeColor=#d79b00;orthogonalLoop=1;jettySize=auto;html=1;strokeWidth=3" edge="1" parent="1" source="in_GAMS (API gateway - Layer7)_20" target="out_iShift Tibco_20">
        <mxGeometry relative="1" as="geometry" />
    </mxCell><mxCell id="conn_GAMS (API gateway - Layer7)_FFT External_20" value="" invert="true" style="edgeStyle=orthogonalEdgeStyle;rounded=0;fillColor=#ffcd28;strokeColor=#d79b00;orthogonalLoop=1;jettySize=auto;html=1;strokeWidth=3" edge="1" parent="1" source="in_FFT External_20" target="out_GAMS (API gateway - Layer7)_20">
        <mxGeometry relative="1" as="geometry" />
    </mxCell><mxCell id="conn_FFT External_RMUS_20" value="" invert="true" style="edgeStyle=orthogonalEdgeStyle;rounded=0;fillColor=#ffcd28;strokeColor=#d79b00;orthogonalLoop=1;jettySize=auto;html=1;strokeWidth=3" edge="1" parent="1" source="in_RMUS_20" target="out_FFT External_20">
        <mxGeometry relative="1" as="geometry" />
    </mxCell><mxCell id="conn_ISHIFT S4_iShift Tibco_21" value="" invert="true" style="edgeStyle=orthogonalEdgeStyle;rounded=0;fillColor=#ffcd28;strokeColor=#d79b00;orthogonalLoop=1;jettySize=auto;html=1;strokeWidth=3" edge="1" parent="1" source="in_iShift Tibco_21" target="out_ISHIFT S4_21">
        <mxGeometry relative="1" as="geometry" />
    </mxCell><mxCell id="conn_iShift Tibco_FFT External_21" value="" invert="true" style="edgeStyle=orthogonalEdgeStyle;rounded=0;fillColor=#ffcd28;strokeColor=#d79b00;orthogonalLoop=1;jettySize=auto;html=1;strokeWidth=3" edge="1" parent="1" source="in_FFT External_21" target="out_iShift Tibco_21">
        <mxGeometry relative="1" as="geometry" />
    </mxCell><mxCell id="conn_FFT External_RMUS_21" value="" invert="true" style="edgeStyle=orthogonalEdgeStyle;rounded=0;fillColor=#ffcd28;strokeColor=#d79b00;orthogonalLoop=1;jettySize=auto;html=1;strokeWidth=3" edge="1" parent="1" source="in_RMUS_21" target="out_FFT External_21">
        <mxGeometry relative="1" as="geometry" />
    </mxCell><mxCell id="detail_ISHIFT MDG_iShift Tibco_0" value="BP Customer" style="text;html=1;strokeColor=none;fillColor=none;align=center;verticalAlign=middle;whiteSpace=wrap;rounded=0" vertex="1" parent="1">
        <mxGeometry x="120" y="20" width="120" height="30" as="geometry" />
    </mxCell><mxCell id="detail_ISHIFT MDG_iShift Tibco_1" value="BP Customer" style="text;html=1;strokeColor=none;fillColor=none;align=center;verticalAlign=middle;whiteSpace=wrap;rounded=0" vertex="1" parent="1">
        <mxGeometry x="120" y="110" width="120" height="30" as="geometry" />
    </mxCell><mxCell id="detail_ISHIFT MDG_iShift Tibco_2" value="BP Customer" style="text;html=1;strokeColor=none;fillColor=none;align=center;verticalAlign=middle;whiteSpace=wrap;rounded=0" vertex="1" parent="1">
        <mxGeometry x="120" y="200" width="120" height="30" as="geometry" />
    </mxCell><mxCell id="detail_Workday_iShift Tibco_3" value="BP Customer" style="text;html=1;strokeColor=none;fillColor=none;align=center;verticalAlign=middle;whiteSpace=wrap;rounded=0" vertex="1" parent="1">
        <mxGeometry x="360" y="290" width="120" height="30" as="geometry" />
    </mxCell><mxCell id="detail_ISHIFT S4_iShift Tibco_4" value="Condition Record" style="text;html=1;strokeColor=none;fillColor=none;align=center;verticalAlign=middle;whiteSpace=wrap;rounded=0" vertex="1" parent="1">
        <mxGeometry x="600" y="380" width="120" height="30" as="geometry" />
    </mxCell><mxCell id="detail_ISHIFT S4_iShift Tibco_5" value="Agreement" style="text;html=1;strokeColor=none;fillColor=none;align=center;verticalAlign=middle;whiteSpace=wrap;rounded=0" vertex="1" parent="1">
        <mxGeometry x="600" y="470" width="120" height="30" as="geometry" />
    </mxCell><mxCell id="detail_ISHIFT S4_iShift Tibco_6" value="Agreement" style="text;html=1;strokeColor=none;fillColor=none;align=center;verticalAlign=middle;whiteSpace=wrap;rounded=0" vertex="1" parent="1">
        <mxGeometry x="600" y="560" width="120" height="30" as="geometry" />
    </mxCell><mxCell id="detail_ISHIFT S4_FFT Internal_7" value="Agreement" style="text;html=1;strokeColor=none;fillColor=none;align=center;verticalAlign=middle;whiteSpace=wrap;rounded=0" vertex="1" parent="1">
        <mxGeometry x="600" y="650" width="120" height="30" as="geometry" />
    </mxCell><mxCell id="detail_ISHIFT S4_iShift Tibco_8" value="Agreement" style="text;html=1;strokeColor=none;fillColor=none;align=center;verticalAlign=middle;whiteSpace=wrap;rounded=0" vertex="1" parent="1">
        <mxGeometry x="600" y="740" width="120" height="30" as="geometry" />
    </mxCell><mxCell id="detail_ISHIFT S4_iShift Tibco_9" value="Claims" style="text;html=1;strokeColor=none;fillColor=none;align=center;verticalAlign=middle;whiteSpace=wrap;rounded=0" vertex="1" parent="1">
        <mxGeometry x="600" y="830" width="120" height="30" as="geometry" />
    </mxCell><mxCell id="detail_ISHIFT S4_iShift Tibco_10" value="Claims" style="text;html=1;strokeColor=none;fillColor=none;align=center;verticalAlign=middle;whiteSpace=wrap;rounded=0" vertex="1" parent="1">
        <mxGeometry x="600" y="920" width="120" height="30" as="geometry" />
    </mxCell><mxCell id="detail_ISHIFT S4_iShift Tibco_11" value="Claims" style="text;html=1;strokeColor=none;fillColor=none;align=center;verticalAlign=middle;whiteSpace=wrap;rounded=0" vertex="1" parent="1">
        <mxGeometry x="600" y="1010" width="120" height="30" as="geometry" />
    </mxCell><mxCell id="detail_ISHIFT S4_FFT External_12" value="Settlement" style="text;html=1;strokeColor=none;fillColor=none;align=center;verticalAlign=middle;whiteSpace=wrap;rounded=0" vertex="1" parent="1">
        <mxGeometry x="600" y="1100" width="120" height="30" as="geometry" />
    </mxCell><mxCell id="detail_ISHIFT S4_iShift Tibco_13" value="Settlement" style="text;html=1;strokeColor=none;fillColor=none;align=center;verticalAlign=middle;whiteSpace=wrap;rounded=0" vertex="1" parent="1">
        <mxGeometry x="600" y="1190" width="120" height="30" as="geometry" />
    </mxCell><mxCell id="detail_ISHIFT S4_RMUS_14" value="Settlement" style="text;html=1;strokeColor=none;fillColor=none;align=center;verticalAlign=middle;whiteSpace=wrap;rounded=0" vertex="1" parent="1">
        <mxGeometry x="600" y="1280" width="120" height="30" as="geometry" />
    </mxCell><mxCell id="detail_ISHIFT S4_FFT External_15" value="Settlement" style="text;html=1;strokeColor=none;fillColor=none;align=center;verticalAlign=middle;whiteSpace=wrap;rounded=0" vertex="1" parent="1">
        <mxGeometry x="600" y="1370" width="120" height="30" as="geometry" />
    </mxCell><mxCell id="detail_ISHIFT S4_iShift Tibco_16" value="Price Order" style="text;html=1;strokeColor=none;fillColor=none;align=center;verticalAlign=middle;whiteSpace=wrap;rounded=0" vertex="1" parent="1">
        <mxGeometry x="600" y="1460" width="120" height="30" as="geometry" />
    </mxCell><mxCell id="detail_ISHIFT S4_iShift Tibco_17" value="Price Order" style="text;html=1;strokeColor=none;fillColor=none;align=center;verticalAlign=middle;whiteSpace=wrap;rounded=0" vertex="1" parent="1">
        <mxGeometry x="600" y="1550" width="120" height="30" as="geometry" />
    </mxCell><mxCell id="detail_ISHIFT S4_iShift Tibco_18" value="Price Order" style="text;html=1;strokeColor=none;fillColor=none;align=center;verticalAlign=middle;whiteSpace=wrap;rounded=0" vertex="1" parent="1">
        <mxGeometry x="600" y="1640" width="120" height="30" as="geometry" />
    </mxCell><mxCell id="detail_ISHIFT S4_iShift Tibco_19" value="Returns" style="text;html=1;strokeColor=none;fillColor=none;align=center;verticalAlign=middle;whiteSpace=wrap;rounded=0" vertex="1" parent="1">
        <mxGeometry x="600" y="1730" width="120" height="30" as="geometry" />
    </mxCell><mxCell id="detail_ISHIFT S4_iShift Tibco_20" value="Returns" style="text;html=1;strokeColor=none;fillColor=none;align=center;verticalAlign=middle;whiteSpace=wrap;rounded=0" vertex="1" parent="1">
        <mxGeometry x="600" y="1820" width="120" height="30" as="geometry" />
    </mxCell><mxCell id="detail_ISHIFT S4_iShift Tibco_21" value="Agreement" style="text;html=1;strokeColor=none;fillColor=none;align=center;verticalAlign=middle;whiteSpace=wrap;rounded=0" vertex="1" parent="1">
        <mxGeometry x="600" y="1910" width="120" height="30" as="geometry" />
    </mxCell><mxCell id="ricefw_ISHIFT MDG_iShift Tibco_0" value="&lt;a href=https://sanofi.sharepoint.com/sites/S4COEBACKOFFICE/Lists/Tech%20Assessment%20Repository/AllItems.aspx?useFiltersInViewXml=1&amp;FilterField1=field_4&amp;FilterValue1=IFS_MDM_029&gt;IFS_MDM_029&lt;/a&gt;" style="text;html=1;strokeColor=none;fillColor=none;align=center;verticalAlign=middle;whiteSpace=wrap;rounded=0;fontSize=9" parent="1" vertex="1"><mxGeometry x="120" y="50" width="120" height="30" as="geometry" /></mxCell><mxCell id="ricefw_iShift Tibco_FFT External_0" value="&lt;a href=&gt;&lt;/a&gt;" style="text;html=1;strokeColor=none;fillColor=none;align=center;verticalAlign=middle;whiteSpace=wrap;rounded=0;fontSize=9" parent="1" vertex="1"><mxGeometry x="1080" y="50" width="120" height="30" as="geometry" /></mxCell><mxCell id="ricefw_FFT External_RMUS_0" value="&lt;a href=&gt;&lt;/a&gt;" style="text;html=1;strokeColor=none;fillColor=none;align=center;verticalAlign=middle;whiteSpace=wrap;rounded=0;fontSize=9" parent="1" vertex="1"><mxGeometry x="1320" y="50" width="120" height="30" as="geometry" /></mxCell><mxCell id="ricefw_ISHIFT MDG_iShift Tibco_1" value="&lt;a href=https://sanofi.sharepoint.com/sites/S4COEBACKOFFICE/Lists/Tech%20Assessment%20Repository/AllItems.aspx?useFiltersInViewXml=1&amp;FilterField1=field_4&amp;FilterValue1=IFS_MDM_029&gt;IFS_MDM_029&lt;/a&gt;" style="text;html=1;strokeColor=none;fillColor=none;align=center;verticalAlign=middle;whiteSpace=wrap;rounded=0;fontSize=9" parent="1" vertex="1"><mxGeometry x="120" y="140" width="120" height="30" as="geometry" /></mxCell><mxCell id="ricefw_iShift Tibco_FFT External_1" value="&lt;a href=&gt;&lt;/a&gt;" style="text;html=1;strokeColor=none;fillColor=none;align=center;verticalAlign=middle;whiteSpace=wrap;rounded=0;fontSize=9" parent="1" vertex="1"><mxGeometry x="1080" y="140" width="120" height="30" as="geometry" /></mxCell><mxCell id="ricefw_FFT External_RMUS_1" value="&lt;a href=&gt;&lt;/a&gt;" style="text;html=1;strokeColor=none;fillColor=none;align=center;verticalAlign=middle;whiteSpace=wrap;rounded=0;fontSize=9" parent="1" vertex="1"><mxGeometry x="1320" y="140" width="120" height="30" as="geometry" /></mxCell><mxCell id="ricefw_ISHIFT MDG_iShift Tibco_2" value="&lt;a href=https://sanofi.sharepoint.com/sites/S4COEBACKOFFICE/Lists/Tech%20Assessment%20Repository/AllItems.aspx?useFiltersInViewXml=1&amp;FilterField1=field_4&amp;FilterValue1=IFS_MDM_029&gt;IFS_MDM_029&lt;/a&gt;" style="text;html=1;strokeColor=none;fillColor=none;align=center;verticalAlign=middle;whiteSpace=wrap;rounded=0;fontSize=9" parent="1" vertex="1"><mxGeometry x="120" y="230" width="120" height="30" as="geometry" /></mxCell><mxCell id="ricefw_iShift Tibco_FFT External_2" value="&lt;a href=&gt;&lt;/a&gt;" style="text;html=1;strokeColor=none;fillColor=none;align=center;verticalAlign=middle;whiteSpace=wrap;rounded=0;fontSize=9" parent="1" vertex="1"><mxGeometry x="1080" y="230" width="120" height="30" as="geometry" /></mxCell><mxCell id="ricefw_FFT External_RMUS_2" value="&lt;a href=&gt;&lt;/a&gt;" style="text;html=1;strokeColor=none;fillColor=none;align=center;verticalAlign=middle;whiteSpace=wrap;rounded=0;fontSize=9" parent="1" vertex="1"><mxGeometry x="1320" y="230" width="120" height="30" as="geometry" /></mxCell><mxCell id="ricefw_Workday_iShift Tibco_3" value="&lt;a href=https://sanofi.sharepoint.com/sites/S4COEBACKOFFICE/Lists/Tech%20Assessment%20Repository/AllItems.aspx?useFiltersInViewXml=1&amp;FilterField1=field_4&amp;FilterValue1=IFS_MDM_029&gt;IFS_MDM_029&lt;/a&gt;" style="text;html=1;strokeColor=none;fillColor=none;align=center;verticalAlign=middle;whiteSpace=wrap;rounded=0;fontSize=9" parent="1" vertex="1"><mxGeometry x="360" y="320" width="120" height="30" as="geometry" /></mxCell><mxCell id="ricefw_iShift Tibco_RMUS_3" value="&lt;a href=&gt;&lt;/a&gt;" style="text;html=1;strokeColor=none;fillColor=none;align=center;verticalAlign=middle;whiteSpace=wrap;rounded=0;fontSize=9" parent="1" vertex="1"><mxGeometry x="1080" y="320" width="120" height="30" as="geometry" /></mxCell><mxCell id="ricefw_ISHIFT S4_iShift Tibco_4" value="&lt;a href=https://sanofi.sharepoint.com/sites/S4COEBACKOFFICE/Lists/Tech%20Assessment%20Repository/AllItems.aspx?useFiltersInViewXml=1&amp;FilterField1=field_4&amp;FilterValue1=IFS_TRD_004&gt;IFS_TRD_004&lt;/a&gt;" style="text;html=1;strokeColor=none;fillColor=none;align=center;verticalAlign=middle;whiteSpace=wrap;rounded=0;fontSize=9" parent="1" vertex="1"><mxGeometry x="600" y="410" width="120" height="30" as="geometry" /></mxCell><mxCell id="ricefw_iShift Tibco_FFT External_4" value="&lt;a href=&gt;&lt;/a&gt;" style="text;html=1;strokeColor=none;fillColor=none;align=center;verticalAlign=middle;whiteSpace=wrap;rounded=0;fontSize=9" parent="1" vertex="1"><mxGeometry x="1080" y="410" width="120" height="30" as="geometry" /></mxCell><mxCell id="ricefw_FFT External_RMUS_4" value="&lt;a href=&gt;&lt;/a&gt;" style="text;html=1;strokeColor=none;fillColor=none;align=center;verticalAlign=middle;whiteSpace=wrap;rounded=0;fontSize=9" parent="1" vertex="1"><mxGeometry x="1320" y="410" width="120" height="30" as="geometry" /></mxCell><mxCell id="ricefw_ISHIFT S4_iShift Tibco_5" value="&lt;a href=https://sanofi.sharepoint.com/sites/S4COEBACKOFFICE/Lists/Tech%20Assessment%20Repository/AllItems.aspx?useFiltersInViewXml=1&amp;FilterField1=field_4&amp;FilterValue1=IFS_TRD_007&gt;IFS_TRD_007&lt;/a&gt;" style="text;html=1;strokeColor=none;fillColor=none;align=center;verticalAlign=middle;whiteSpace=wrap;rounded=0;fontSize=9" parent="1" vertex="1"><mxGeometry x="600" y="500" width="120" height="30" as="geometry" /></mxCell><mxCell id="ricefw_iShift Tibco_FFT External_5" value="&lt;a href=&gt;&lt;/a&gt;" style="text;html=1;strokeColor=none;fillColor=none;align=center;verticalAlign=middle;whiteSpace=wrap;rounded=0;fontSize=9" parent="1" vertex="1"><mxGeometry x="1080" y="500" width="120" height="30" as="geometry" /></mxCell><mxCell id="ricefw_FFT External_RMUS_5" value="&lt;a href=&gt;&lt;/a&gt;" style="text;html=1;strokeColor=none;fillColor=none;align=center;verticalAlign=middle;whiteSpace=wrap;rounded=0;fontSize=9" parent="1" vertex="1"><mxGeometry x="1320" y="500" width="120" height="30" as="geometry" /></mxCell><mxCell id="ricefw_ISHIFT S4_iShift Tibco_6" value="&lt;a href=https://sanofi.sharepoint.com/sites/S4COEBACKOFFICE/Lists/Tech%20Assessment%20Repository/AllItems.aspx?useFiltersInViewXml=1&amp;FilterField1=field_4&amp;FilterValue1=IFS_TRD_008&gt;IFS_TRD_008&lt;/a&gt;" style="text;html=1;strokeColor=none;fillColor=none;align=center;verticalAlign=middle;whiteSpace=wrap;rounded=0;fontSize=9" parent="1" vertex="1"><mxGeometry x="600" y="590" width="120" height="30" as="geometry" /></mxCell><mxCell id="ricefw_iShift Tibco_FFT External_6" value="&lt;a href=&gt;&lt;/a&gt;" style="text;html=1;strokeColor=none;fillColor=none;align=center;verticalAlign=middle;whiteSpace=wrap;rounded=0;fontSize=9" parent="1" vertex="1"><mxGeometry x="1080" y="590" width="120" height="30" as="geometry" /></mxCell><mxCell id="ricefw_FFT External_RMUS_6" value="&lt;a href=&gt;&lt;/a&gt;" style="text;html=1;strokeColor=none;fillColor=none;align=center;verticalAlign=middle;whiteSpace=wrap;rounded=0;fontSize=9" parent="1" vertex="1"><mxGeometry x="1320" y="590" width="120" height="30" as="geometry" /></mxCell><mxCell id="ricefw_ISHIFT S4_FFT Internal_7" value="&lt;a href=https://sanofi.sharepoint.com/sites/S4COEBACKOFFICE/Lists/Tech%20Assessment%20Repository/AllItems.aspx?useFiltersInViewXml=1&amp;FilterField1=field_4&amp;FilterValue1=IFS_TRD_008&gt;IFS_TRD_008&lt;/a&gt;" style="text;html=1;strokeColor=none;fillColor=none;align=center;verticalAlign=middle;whiteSpace=wrap;rounded=0;fontSize=9" parent="1" vertex="1"><mxGeometry x="600" y="680" width="120" height="30" as="geometry" /></mxCell><mxCell id="ricefw_FFT Internal_iShift Tibco_7" value="&lt;a href=&gt;&lt;/a&gt;" style="text;html=1;strokeColor=none;fillColor=none;align=center;verticalAlign=middle;whiteSpace=wrap;rounded=0;fontSize=9" parent="1" vertex="1"><mxGeometry x="840" y="680" width="120" height="30" as="geometry" /></mxCell><mxCell id="ricefw_iShift Tibco_FFT External_7" value="&lt;a href=&gt;&lt;/a&gt;" style="text;html=1;strokeColor=none;fillColor=none;align=center;verticalAlign=middle;whiteSpace=wrap;rounded=0;fontSize=9" parent="1" vertex="1"><mxGeometry x="1080" y="680" width="120" height="30" as="geometry" /></mxCell><mxCell id="ricefw_FFT External_RMUS_7" value="&lt;a href=&gt;&lt;/a&gt;" style="text;html=1;strokeColor=none;fillColor=none;align=center;verticalAlign=middle;whiteSpace=wrap;rounded=0;fontSize=9" parent="1" vertex="1"><mxGeometry x="1320" y="680" width="120" height="30" as="geometry" /></mxCell><mxCell id="ricefw_ISHIFT S4_iShift Tibco_8" value="&lt;a href=https://sanofi.sharepoint.com/sites/S4COEBACKOFFICE/Lists/Tech%20Assessment%20Repository/AllItems.aspx?useFiltersInViewXml=1&amp;FilterField1=field_4&amp;FilterValue1=IFS_TRD_011&gt;IFS_TRD_011&lt;/a&gt;" style="text;html=1;strokeColor=none;fillColor=none;align=center;verticalAlign=middle;whiteSpace=wrap;rounded=0;fontSize=9" parent="1" vertex="1"><mxGeometry x="600" y="770" width="120" height="30" as="geometry" /></mxCell><mxCell id="ricefw_iShift Tibco_FFT External_8" value="&lt;a href=&gt;&lt;/a&gt;" style="text;html=1;strokeColor=none;fillColor=none;align=center;verticalAlign=middle;whiteSpace=wrap;rounded=0;fontSize=9" parent="1" vertex="1"><mxGeometry x="1080" y="770" width="120" height="30" as="geometry" /></mxCell><mxCell id="ricefw_FFT External_RMUS_8" value="&lt;a href=&gt;&lt;/a&gt;" style="text;html=1;strokeColor=none;fillColor=none;align=center;verticalAlign=middle;whiteSpace=wrap;rounded=0;fontSize=9" parent="1" vertex="1"><mxGeometry x="1320" y="770" width="120" height="30" as="geometry" /></mxCell><mxCell id="ricefw_ISHIFT S4_iShift Tibco_9" value="&lt;a href=https://sanofi.sharepoint.com/sites/S4COEBACKOFFICE/Lists/Tech%20Assessment%20Repository/AllItems.aspx?useFiltersInViewXml=1&amp;FilterField1=field_4&amp;FilterValue1=IFS_TRD_027&gt;IFS_TRD_027&lt;/a&gt;" style="text;html=1;strokeColor=none;fillColor=none;align=center;verticalAlign=middle;whiteSpace=wrap;rounded=0;fontSize=9" parent="1" vertex="1"><mxGeometry x="600" y="860" width="120" height="30" as="geometry" /></mxCell><mxCell id="ricefw_iShift Tibco_FFT External_9" value="&lt;a href=&gt;&lt;/a&gt;" style="text;html=1;strokeColor=none;fillColor=none;align=center;verticalAlign=middle;whiteSpace=wrap;rounded=0;fontSize=9" parent="1" vertex="1"><mxGeometry x="1080" y="860" width="120" height="30" as="geometry" /></mxCell><mxCell id="ricefw_FFT External_RMUS_9" value="&lt;a href=&gt;&lt;/a&gt;" style="text;html=1;strokeColor=none;fillColor=none;align=center;verticalAlign=middle;whiteSpace=wrap;rounded=0;fontSize=9" parent="1" vertex="1"><mxGeometry x="1320" y="860" width="120" height="30" as="geometry" /></mxCell><mxCell id="ricefw_ISHIFT S4_iShift Tibco_10" value="&lt;a href=https://sanofi.sharepoint.com/sites/S4COEBACKOFFICE/Lists/Tech%20Assessment%20Repository/AllItems.aspx?useFiltersInViewXml=1&amp;FilterField1=field_4&amp;FilterValue1=IFS_TRD_027&gt;IFS_TRD_027&lt;/a&gt;" style="text;html=1;strokeColor=none;fillColor=none;align=center;verticalAlign=middle;whiteSpace=wrap;rounded=0;fontSize=9" parent="1" vertex="1"><mxGeometry x="600" y="950" width="120" height="30" as="geometry" /></mxCell><mxCell id="ricefw_iShift Tibco_FFT External_10" value="&lt;a href=&gt;&lt;/a&gt;" style="text;html=1;strokeColor=none;fillColor=none;align=center;verticalAlign=middle;whiteSpace=wrap;rounded=0;fontSize=9" parent="1" vertex="1"><mxGeometry x="1080" y="950" width="120" height="30" as="geometry" /></mxCell><mxCell id="ricefw_FFT External_RMUS_10" value="&lt;a href=&gt;&lt;/a&gt;" style="text;html=1;strokeColor=none;fillColor=none;align=center;verticalAlign=middle;whiteSpace=wrap;rounded=0;fontSize=9" parent="1" vertex="1"><mxGeometry x="1320" y="950" width="120" height="30" as="geometry" /></mxCell><mxCell id="ricefw_ISHIFT S4_iShift Tibco_11" value="&lt;a href=https://sanofi.sharepoint.com/sites/S4COEBACKOFFICE/Lists/Tech%20Assessment%20Repository/AllItems.aspx?useFiltersInViewXml=1&amp;FilterField1=field_4&amp;FilterValue1=IFS_TRD_028&gt;IFS_TRD_028&lt;/a&gt;" style="text;html=1;strokeColor=none;fillColor=none;align=center;verticalAlign=middle;whiteSpace=wrap;rounded=0;fontSize=9" parent="1" vertex="1"><mxGeometry x="600" y="1040" width="120" height="30" as="geometry" /></mxCell><mxCell id="ricefw_iShift Tibco_FFT External_11" value="&lt;a href=&gt;&lt;/a&gt;" style="text;html=1;strokeColor=none;fillColor=none;align=center;verticalAlign=middle;whiteSpace=wrap;rounded=0;fontSize=9" parent="1" vertex="1"><mxGeometry x="1080" y="1040" width="120" height="30" as="geometry" /></mxCell><mxCell id="ricefw_FFT External_RMUS_11" value="&lt;a href=&gt;&lt;/a&gt;" style="text;html=1;strokeColor=none;fillColor=none;align=center;verticalAlign=middle;whiteSpace=wrap;rounded=0;fontSize=9" parent="1" vertex="1"><mxGeometry x="1320" y="1040" width="120" height="30" as="geometry" /></mxCell><mxCell id="ricefw_ISHIFT S4_FFT External_12" value="&lt;a href=https://sanofi.sharepoint.com/sites/S4COEBACKOFFICE/Lists/Tech%20Assessment%20Repository/AllItems.aspx?useFiltersInViewXml=1&amp;FilterField1=field_4&amp;FilterValue1=IFS_TRD_031&gt;IFS_TRD_031&lt;/a&gt;" style="text;html=1;strokeColor=none;fillColor=none;align=center;verticalAlign=middle;whiteSpace=wrap;rounded=0;fontSize=9" parent="1" vertex="1"><mxGeometry x="600" y="1130" width="120" height="30" as="geometry" /></mxCell><mxCell id="ricefw_FFT External_RMUS_12" value="&lt;a href=&gt;&lt;/a&gt;" style="text;html=1;strokeColor=none;fillColor=none;align=center;verticalAlign=middle;whiteSpace=wrap;rounded=0;fontSize=9" parent="1" vertex="1"><mxGeometry x="1320" y="1130" width="120" height="30" as="geometry" /></mxCell><mxCell id="ricefw_ISHIFT S4_iShift Tibco_13" value="&lt;a href=https://sanofi.sharepoint.com/sites/S4COEBACKOFFICE/Lists/Tech%20Assessment%20Repository/AllItems.aspx?useFiltersInViewXml=1&amp;FilterField1=field_4&amp;FilterValue1=IFS_TRD_031&gt;IFS_TRD_031&lt;/a&gt;" style="text;html=1;strokeColor=none;fillColor=none;align=center;verticalAlign=middle;whiteSpace=wrap;rounded=0;fontSize=9" parent="1" vertex="1"><mxGeometry x="600" y="1220" width="120" height="30" as="geometry" /></mxCell><mxCell id="ricefw_iShift Tibco_FFT External_13" value="&lt;a href=&gt;&lt;/a&gt;" style="text;html=1;strokeColor=none;fillColor=none;align=center;verticalAlign=middle;whiteSpace=wrap;rounded=0;fontSize=9" parent="1" vertex="1"><mxGeometry x="1080" y="1220" width="120" height="30" as="geometry" /></mxCell><mxCell id="ricefw_FFT External_RMUS_13" value="&lt;a href=&gt;&lt;/a&gt;" style="text;html=1;strokeColor=none;fillColor=none;align=center;verticalAlign=middle;whiteSpace=wrap;rounded=0;fontSize=9" parent="1" vertex="1"><mxGeometry x="1320" y="1220" width="120" height="30" as="geometry" /></mxCell><mxCell id="ricefw_ISHIFT S4_RMUS_14" value="&lt;a href=https://sanofi.sharepoint.com/sites/S4COEBACKOFFICE/Lists/Tech%20Assessment%20Repository/AllItems.aspx?useFiltersInViewXml=1&amp;FilterField1=field_4&amp;FilterValue1=IFS_TRD_032&gt;IFS_TRD_032&lt;/a&gt;" style="text;html=1;strokeColor=none;fillColor=none;align=center;verticalAlign=middle;whiteSpace=wrap;rounded=0;fontSize=9" parent="1" vertex="1"><mxGeometry x="600" y="1310" width="120" height="30" as="geometry" /></mxCell><mxCell id="ricefw_ISHIFT S4_FFT External_15" value="&lt;a href=https://sanofi.sharepoint.com/sites/S4COEBACKOFFICE/Lists/Tech%20Assessment%20Repository/AllItems.aspx?useFiltersInViewXml=1&amp;FilterField1=field_4&amp;FilterValue1=IFS_TRD_032&gt;IFS_TRD_032&lt;/a&gt;" style="text;html=1;strokeColor=none;fillColor=none;align=center;verticalAlign=middle;whiteSpace=wrap;rounded=0;fontSize=9" parent="1" vertex="1"><mxGeometry x="600" y="1400" width="120" height="30" as="geometry" /></mxCell><mxCell id="ricefw_FFT External_RMUS_15" value="&lt;a href=&gt;&lt;/a&gt;" style="text;html=1;strokeColor=none;fillColor=none;align=center;verticalAlign=middle;whiteSpace=wrap;rounded=0;fontSize=9" parent="1" vertex="1"><mxGeometry x="1320" y="1400" width="120" height="30" as="geometry" /></mxCell><mxCell id="ricefw_ISHIFT S4_iShift Tibco_16" value="&lt;a href=https://sanofi.sharepoint.com/sites/S4COEBACKOFFICE/Lists/Tech%20Assessment%20Repository/AllItems.aspx?useFiltersInViewXml=1&amp;FilterField1=field_4&amp;FilterValue1=IFS_TRD_037&gt;IFS_TRD_037&lt;/a&gt;" style="text;html=1;strokeColor=none;fillColor=none;align=center;verticalAlign=middle;whiteSpace=wrap;rounded=0;fontSize=9" parent="1" vertex="1"><mxGeometry x="600" y="1490" width="120" height="30" as="geometry" /></mxCell><mxCell id="ricefw_iShift Tibco_RMUS_16" value="&lt;a href=&gt;&lt;/a&gt;" style="text;html=1;strokeColor=none;fillColor=none;align=center;verticalAlign=middle;whiteSpace=wrap;rounded=0;fontSize=9" parent="1" vertex="1"><mxGeometry x="1080" y="1490" width="120" height="30" as="geometry" /></mxCell><mxCell id="ricefw_ISHIFT S4_iShift Tibco_17" value="&lt;a href=https://sanofi.sharepoint.com/sites/S4COEBACKOFFICE/Lists/Tech%20Assessment%20Repository/AllItems.aspx?useFiltersInViewXml=1&amp;FilterField1=field_4&amp;FilterValue1=IFS_TRD_037&gt;IFS_TRD_037&lt;/a&gt;" style="text;html=1;strokeColor=none;fillColor=none;align=center;verticalAlign=middle;whiteSpace=wrap;rounded=0;fontSize=9" parent="1" vertex="1"><mxGeometry x="600" y="1580" width="120" height="30" as="geometry" /></mxCell><mxCell id="ricefw_iShift Tibco_GAMS (API gateway - Layer7)_17" value="&lt;a href=&gt;&lt;/a&gt;" style="text;html=1;strokeColor=none;fillColor=none;align=center;verticalAlign=middle;whiteSpace=wrap;rounded=0;fontSize=9" parent="1" vertex="1"><mxGeometry x="1080" y="1580" width="120" height="30" as="geometry" /></mxCell><mxCell id="ricefw_GAMS (API gateway - Layer7)_RMUS_17" value="&lt;a href=&gt;&lt;/a&gt;" style="text;html=1;strokeColor=none;fillColor=none;align=center;verticalAlign=middle;whiteSpace=wrap;rounded=0;fontSize=9" parent="1" vertex="1"><mxGeometry x="1560" y="1580" width="120" height="30" as="geometry" /></mxCell><mxCell id="ricefw_ISHIFT S4_iShift Tibco_18" value="&lt;a href=https://sanofi.sharepoint.com/sites/S4COEBACKOFFICE/Lists/Tech%20Assessment%20Repository/AllItems.aspx?useFiltersInViewXml=1&amp;FilterField1=field_4&amp;FilterValue1=IFS_TRD_037&gt;IFS_TRD_037&lt;/a&gt;" style="text;html=1;strokeColor=none;fillColor=none;align=center;verticalAlign=middle;whiteSpace=wrap;rounded=0;fontSize=9" parent="1" vertex="1"><mxGeometry x="600" y="1670" width="120" height="30" as="geometry" /></mxCell><mxCell id="ricefw_iShift Tibco_FFT External_18" value="&lt;a href=&gt;&lt;/a&gt;" style="text;html=1;strokeColor=none;fillColor=none;align=center;verticalAlign=middle;whiteSpace=wrap;rounded=0;fontSize=9" parent="1" vertex="1"><mxGeometry x="1080" y="1670" width="120" height="30" as="geometry" /></mxCell><mxCell id="ricefw_FFT External_RMUS_18" value="&lt;a href=&gt;&lt;/a&gt;" style="text;html=1;strokeColor=none;fillColor=none;align=center;verticalAlign=middle;whiteSpace=wrap;rounded=0;fontSize=9" parent="1" vertex="1"><mxGeometry x="1320" y="1670" width="120" height="30" as="geometry" /></mxCell><mxCell id="ricefw_ISHIFT S4_iShift Tibco_19" value="&lt;a href=https://sanofi.sharepoint.com/sites/S4COEBACKOFFICE/Lists/Tech%20Assessment%20Repository/AllItems.aspx?useFiltersInViewXml=1&amp;FilterField1=field_4&amp;FilterValue1=IFS_TRD_038&gt;IFS_TRD_038&lt;/a&gt;" style="text;html=1;strokeColor=none;fillColor=none;align=center;verticalAlign=middle;whiteSpace=wrap;rounded=0;fontSize=9" parent="1" vertex="1"><mxGeometry x="600" y="1760" width="120" height="30" as="geometry" /></mxCell><mxCell id="ricefw_iShift Tibco_FFT External_19" value="&lt;a href=&gt;&lt;/a&gt;" style="text;html=1;strokeColor=none;fillColor=none;align=center;verticalAlign=middle;whiteSpace=wrap;rounded=0;fontSize=9" parent="1" vertex="1"><mxGeometry x="1080" y="1760" width="120" height="30" as="geometry" /></mxCell><mxCell id="ricefw_FFT External_RMUS_19" value="&lt;a href=&gt;&lt;/a&gt;" style="text;html=1;strokeColor=none;fillColor=none;align=center;verticalAlign=middle;whiteSpace=wrap;rounded=0;fontSize=9" parent="1" vertex="1"><mxGeometry x="1320" y="1760" width="120" height="30" as="geometry" /></mxCell><mxCell id="ricefw_ISHIFT S4_iShift Tibco_20" value="&lt;a href=https://sanofi.sharepoint.com/sites/S4COEBACKOFFICE/Lists/Tech%20Assessment%20Repository/AllItems.aspx?useFiltersInViewXml=1&amp;FilterField1=field_4&amp;FilterValue1=IFS_TRD_038&gt;IFS_TRD_038&lt;/a&gt;" style="text;html=1;strokeColor=none;fillColor=none;align=center;verticalAlign=middle;whiteSpace=wrap;rounded=0;fontSize=9" parent="1" vertex="1"><mxGeometry x="600" y="1850" width="120" height="30" as="geometry" /></mxCell><mxCell id="ricefw_iShift Tibco_GAMS (API gateway - Layer7)_20" value="&lt;a href=&gt;&lt;/a&gt;" style="text;html=1;strokeColor=none;fillColor=none;align=center;verticalAlign=middle;whiteSpace=wrap;rounded=0;fontSize=9" parent="1" vertex="1"><mxGeometry x="1080" y="1850" width="120" height="30" as="geometry" /></mxCell><mxCell id="ricefw_GAMS (API gateway - Layer7)_FFT External_20" value="&lt;a href=&gt;&lt;/a&gt;" style="text;html=1;strokeColor=none;fillColor=none;align=center;verticalAlign=middle;whiteSpace=wrap;rounded=0;fontSize=9" parent="1" vertex="1"><mxGeometry x="1560" y="1850" width="120" height="30" as="geometry" /></mxCell><mxCell id="ricefw_FFT External_RMUS_20" value="&lt;a href=&gt;&lt;/a&gt;" style="text;html=1;strokeColor=none;fillColor=none;align=center;verticalAlign=middle;whiteSpace=wrap;rounded=0;fontSize=9" parent="1" vertex="1"><mxGeometry x="1320" y="1850" width="120" height="30" as="geometry" /></mxCell><mxCell id="ricefw_ISHIFT S4_iShift Tibco_21" value="&lt;a href=https://sanofi.sharepoint.com/sites/S4COEBACKOFFICE/Lists/Tech%20Assessment%20Repository/AllItems.aspx?useFiltersInViewXml=1&amp;FilterField1=field_4&amp;FilterValue1=IFS_TRD_040&gt;IFS_TRD_040&lt;/a&gt;" style="text;html=1;strokeColor=none;fillColor=none;align=center;verticalAlign=middle;whiteSpace=wrap;rounded=0;fontSize=9" parent="1" vertex="1"><mxGeometry x="600" y="1940" width="120" height="30" as="geometry" /></mxCell><mxCell id="ricefw_iShift Tibco_FFT External_21" value="&lt;a href=&gt;&lt;/a&gt;" style="text;html=1;strokeColor=none;fillColor=none;align=center;verticalAlign=middle;whiteSpace=wrap;rounded=0;fontSize=9" parent="1" vertex="1"><mxGeometry x="1080" y="1940" width="120" height="30" as="geometry" /></mxCell><mxCell id="ricefw_FFT External_RMUS_21" value="&lt;a href=&gt;&lt;/a&gt;" style="text;html=1;strokeColor=none;fillColor=none;align=center;verticalAlign=middle;whiteSpace=wrap;rounded=0;fontSize=9" parent="1" vertex="1"><mxGeometry x="1320" y="1940" width="120" height="30" as="geometry" /></mxCell></root>
      </mxGraphModel>
    </diagram></mxfile>